<?xml version="1.0" standalone="no"?>
<!DOCTYPE svg PUBLIC "-//W3C//DTD SVG 1.1//EN" "http://www.w3.org/Graphics/SVG/1.1/DTD/svg11.dtd" >
<svg xmlns="http://www.w3.org/2000/svg" xmlns:xlink="http://www.w3.org/1999/xlink" version="1.1">
<metadata>
Created by FontForge 20161003 at Mon Feb  4 22:18:49 2019
 By www-data
Copyright (c) 1991, 1996, 1998, 1999 Adobe Systems Incorporated.  All Rights Reserved.Formata is either a registered trademark or trademark of Berthold Types Limited in the United States and/or other countries.
</metadata>
<defs>
<font id="formatamedium" horiz-adv-x="604" >
  <font-face 
    font-family="formatamedium"
    font-weight="500"
    font-stretch="normal"
    units-per-em="1000"
    panose-1="2 11 6 0 0 0 0 0 0 0"
    ascent="749"
    descent="-251"
    x-height="531"
    cap-height="709"
    bbox="-127 -251 1291.05 967"
    underline-thickness="50"
    underline-position="-150"
    unicode-range="U+0020-FB02"
  />
<missing-glyph horiz-adv-x="292" 
 />
    <glyph glyph-name=".notdef" horiz-adv-x="292" 
 />
    <glyph glyph-name=".null" horiz-adv-x="0" 
 />
    <glyph glyph-name="nonmarkingreturn" horiz-adv-x="333" 
 />
    <glyph glyph-name="space" unicode=" " horiz-adv-x="292" 
 />
    <glyph glyph-name="space" unicode="&#xa0;" horiz-adv-x="292" 
 />
    <glyph glyph-name="exclam" unicode="!" horiz-adv-x="292" 
d="M244 153l7 -5v-142l-5 -6l-159 -3l-6 7v140l7 7q79 -1 156 2zM235 256l-6 -8l-122 -6l-5 7q-8 204 -13 305q-5 75 -17 195l6 7l175 15l8 -5q-23 -329 -26 -510z" />
    <glyph glyph-name="quotedbl" unicode="&#x22;" horiz-adv-x="396" 
d="M363 680l-47 -259h-27l-47 247q-2 16 -2 22q0 25 18.5 42t47.5 17q38 0 52 -29q7 -12 5 -40zM155 680l-47 -259h-27l-47 247q-2 16 -2 22q0 26 18.5 42.5t47.5 16.5q32 0 48 -23q11 -15 9 -46z" />
    <glyph glyph-name="numbersign" unicode="#" horiz-adv-x="667" 
d="M466 214l-31 -215h-101l31 215h-99l-30 -215h-102l30 215h-122v99h136l12 95h-126v100h139l27 199h104l-28 -199h98l27 199h101l-27 -199h118v-100h-131l-14 -95h123v-99h-135zM278 313h100l13 95h-99z" />
    <glyph glyph-name="dollar" unicode="$" horiz-adv-x="521" 
d="M196 -79l-6 -6h-69l-4 6l19 74q-52 13 -92 34l-6 8l9 119l10 4q33 -24 51 -32.5t57 -18.5l43 177q-60 41 -82 57.5t-37 36.5q-39 48 -39 112q0 35 12 68.5t36.5 63.5t68.5 48.5t102 18.5q24 0 36 -1l11 61l7 6l69 -1l5 -6l-18 -68q35 -6 81 -23l7 -7l-15 -116l-10 -3
q-47 28 -90 38l-42 -164q49 -31 73 -48q21 -15 32.5 -25.5t30 -32t28 -50t9.5 -63.5q0 -53 -29.5 -102.5t-90.5 -76.5q-55 -24 -153 -22zM273 246l-36 -144q40 1 61 22t21 50q0 34 -46 72zM246 447l34 131q-44 -2 -62 -24q-16 -19 -16 -43q0 -35 44 -64z" />
    <glyph glyph-name="percent" unicode="%" horiz-adv-x="917" 
d="M374 464q3 -237 -179 -237q-173 0 -173 223q0 93 25 144q44 92 155 92q35 0 63 -10t45.5 -23.5t30 -36t19 -40t10 -43.5t4 -37.5t0.5 -31.5zM257 470q0 29 -2 48.5t-7 42.5t-17.5 35t-30.5 12q-27 0 -42 -27q-19 -35 -19 -124q0 -152 61 -152q18 0 30 10.5t20 49t7 105.5
zM895 228q3 -236 -179 -236q-173 0 -173 223q0 92 25 143q44 92 155 92q35 0 63 -10t45.5 -23.5t30 -36t19 -40t10 -43.5t4 -37.5t0.5 -31.5zM778 234q0 29 -2 48.5t-7 42.5t-17.5 35t-30.5 12q-27 0 -42 -27q-19 -35 -19 -124q0 -151 61 -151q18 0 30 10.5t20 48.5t7 105z
M375 7l-7 -7q-49 0 -101 -1l-5 8q67 145 142 321q78 184 140 342l7 7q77 1 100 2l4 -9q-143 -318 -280 -663z" />
    <glyph glyph-name="ampersand" unicode="&#x26;" horiz-adv-x="667" 
d="M663 18l-8 -15q-59 0 -88 -1q-27 -1 -86 -5l-9 6l-37 50q-89 -65 -189 -65q-111 0 -172 64q-50 52 -50 126q0 39 12.5 71.5t39 59t46 41.5t54.5 37q-18 25 -27.5 38.5t-23.5 48.5t-14 68q0 73 57 124.5t146 51.5q92 0 137 -48.5t45 -105.5q0 -98 -119 -184l98 -126
q31 42 48 75t34 84l10 1l83 -103l2 -9q-43 -84 -100 -146q17 -23 62 -78.5t49 -59.5zM302 476q18 14 27.5 23t20.5 27.5t11 37.5q0 24 -16 37t-34 13q-22 0 -37.5 -15.5t-15.5 -37.5q0 -17 8 -31.5t36 -53.5zM360 149l-105 134q-19 -14 -29.5 -23t-22 -27.5t-11.5 -38.5
q0 -30 22.5 -53.5t60.5 -23.5q42 0 85 32z" />
    <glyph glyph-name="quotesingle" unicode="'" horiz-adv-x="208" 
d="M165 680l-47 -259h-27l-47 247q-1 8 -1 22q0 29 20 44t45 15q31 0 49 -23q10 -14 8 -46z" />
    <glyph glyph-name="parenleft" unicode="(" horiz-adv-x="354" 
d="M343 -206l-6 -9l-92 -3l-7 6q-38 53 -60 89t-55.5 102.5t-50.5 141t-17 155.5q0 80 20 159t53 142.5t60 105t56 77.5l8 4l93 1l5 -9q-38 -70 -67 -142q-75 -193 -75 -350q0 -115 34 -223t101 -247z" />
    <glyph glyph-name="parenright" unicode=")" horiz-adv-x="354" 
d="M11 753l6 9l92 3l8 -6q37 -53 59.5 -89t55.5 -102.5t50 -141.5t17 -156q0 -244 -188 -483l-9 -4l-93 -1l-5 9q142 261 142 491q0 86 -23.5 180t-47.5 151.5t-64 139.5z" />
    <glyph glyph-name="asterisk" unicode="*" horiz-adv-x="458" 
d="M426 517l3 -7l-48 -88l-8 -2l-110 82l25 -130l-6 -6l-103 -3l-5 5l16 129q-68 -52 -101 -79l-7 1l-52 86l2 7l122 52l-122 51l-3 7q29 46 50 85l8 1q47 -36 106 -78l-21 129l6 6l100 2l5 -6l-18 -128l103 79l8 -1q17 -33 50 -86l-1 -7l-122 -55z" />
    <glyph glyph-name="plus" unicode="+" horiz-adv-x="667" 
d="M386 240v-240h-103v240h-241v102h241v241h103v-241h239v-102h-239z" />
    <glyph glyph-name="comma" unicode="," horiz-adv-x="250" 
d="M227 155l4 -7q-47 -103 -108 -258l-7 -5l-116 -4l-4 7q37 127 57 255l6 6q80 1 168 6z" />
    <glyph glyph-name="hyphen" unicode="-" horiz-adv-x="375" 
d="M336 347l5 -5l-7 -116l-6 -6q-24 0 -73 0.5t-74 0.5q-30 0 -142 -2l-5 6l6 115l7 6q23 0 71 -0.5t72 -0.5q50 0 146 2z" />
    <glyph glyph-name="hyphen" unicode="&#xad;" horiz-adv-x="375" 
d="M336 347l5 -5l-7 -116l-6 -6q-24 0 -73 0.5t-74 0.5q-30 0 -142 -2l-5 6l6 115l7 6q23 0 71 -0.5t72 -0.5q50 0 146 2z" />
    <glyph glyph-name="period" unicode="." horiz-adv-x="250" 
d="M204 154l5 -6l2 -141l-5 -6l-160 -4l-5 7l-2 139l5 8z" />
    <glyph glyph-name="slash" unicode="/" horiz-adv-x="479" 
d="M114 -137l-7 -7l-118 -2l-6 9q127 287 175 396.5t104 244.5t100 254l8 7h117l4 -8q-206 -476 -263 -610.5t-114 -283.5z" />
    <glyph glyph-name="zero" unicode="0" horiz-adv-x="583" 
d="M548 351q4 -206 -74 -291q-66 -73 -182 -73q-130 0 -193.5 83t-63.5 259q0 127 28 200q18 50 48.5 84.5t65 50t62.5 21.5t55 6q51 0 91.5 -14t66.5 -34t44.5 -53t28 -59.5t15 -66t6.5 -60.5t2 -53zM377 360q0 41 -2 71t-9.5 68.5t-25.5 59.5t-45 21q-44 0 -66.5 -56
t-22.5 -185q0 -123 21 -183q22 -59 67 -59q49 0 67 66q16 62 16 197z" />
    <glyph glyph-name="one" unicode="1" horiz-adv-x="583" 
d="M387 7l-6 -7q-77 1 -167 -3l-5 7q6 270 6 391q0 107 -1 161l-92 -10l-6 6l7 101l7 7l249 33l6 -6q-5 -337 -5 -405q0 -142 7 -275z" />
    <glyph glyph-name="two" unicode="2" horiz-adv-x="583" 
d="M516 136l5 -7l-5 -121l-7 -8h-484l-5 10q32 37 166 204q71 89 101 141.5t30 97.5q0 37 -28.5 71t-88.5 34q-79 0 -154 -63l-9 6l7 133l5 7q39 17 60.5 25.5t57.5 16t75 7.5q145 0 212 -91q40 -53 40 -128q0 -46 -21 -93t-44 -78t-71 -87l-70 -83z" />
    <glyph glyph-name="three" unicode="3" horiz-adv-x="583" 
d="M47 553l6 116l6 8h423l5 -8q-5 -10 -68 -124q-43 -79 -66 -124q28 -6 47 -12.5t45.5 -27t44.5 -52.5q24 -40 24 -99q0 -104 -72.5 -174t-215.5 -70q-97 0 -173 35l-5 8l8 120l8 4q27 -17 40.5 -24.5t41.5 -16t59 -8.5q64 0 99 35q30 31 30 75q0 45 -29.5 79.5t-98.5 34.5
q-24 0 -54 -10l-10 11q90 172 114 222l-204 -4z" />
    <glyph glyph-name="four" unicode="4" horiz-adv-x="583" 
d="M461 145l4 -138l-7 -7q-71 1 -156 -3l-6 7l4 141h-261l-5 7l3 91q161 323 208 426l8 7l206 3l7 -6q-6 -219 -5 -412l72 2l5 -6l-6 -106l-6 -7zM176 261l126 2l4 167l5 135q-32 -81 -66 -154z" />
    <glyph glyph-name="five" unicode="5" horiz-adv-x="583" 
d="M233 552l-8 -95q40 5 60 5q111 0 176 -62.5t65 -164.5q0 -41 -13.5 -80.5t-44 -79t-91 -64t-144.5 -24.5q-74 0 -167 30l-5 8q6 60 9 122l9 4q64 -42 139 -42q59 0 95.5 32t36.5 82q0 49 -36 81.5t-101 32.5q-61 0 -129 -32l-9 5q17 216 23 359l7 8h381l5 -5l-9 -120
l-7 -6z" />
    <glyph glyph-name="six" unicode="6" horiz-adv-x="583" 
d="M493 547l-11 -6q-57 31 -113 31q-44 0 -76 -16q-31 -16 -50 -45.5t-24.5 -50.5t-11.5 -58q65 47 138 47q87 0 147 -61.5t60 -166.5q0 -113 -68.5 -173.5t-179.5 -60.5q-264 0 -264 332q0 174 79.5 273t244.5 99q47 0 131 -18l5 -8zM210 254q0 -71 15 -100q26 -54 81 -54
q10 0 21 3t28 12t28 33t11 60q0 47 -26 80t-68 33q-32 0 -54.5 -17t-29 -31.5t-6.5 -18.5z" />
    <glyph glyph-name="seven" unicode="7" horiz-adv-x="583" 
d="M535 679l6 -9q-146 -407 -193 -579q-8 -28 -22 -84l-7 -7q-83 1 -185 -3l-6 8q4 11 55 140.5t98 249t60 155.5l-285 -4l-6 6l11 118l6 7q258 -1 468 2z" />
    <glyph glyph-name="eight" unicode="8" horiz-adv-x="583" 
d="M433 366q54 -22 79 -60q31 -48 31 -112q0 -45 -21.5 -92.5t-75.5 -78.5q-61 -36 -157 -36q-108 0 -178 53t-70 156q0 33 8 60.5t18 43.5t27 30.5t26 20t24 13.5q-17 9 -28 16.5t-28 24t-26 42t-9 57.5q0 86 67 136t175 50q66 0 113.5 -17.5t72 -46.5t35 -59t10.5 -61
q0 -55 -34 -97q-19 -23 -59 -43zM365 506q-3 42 -26 61t-49 19t-51 -21.5t-25 -66.5q0 -43 24.5 -64.5t52.5 -21.5q33 0 54.5 26t19.5 68zM370 203q-1 52 -25.5 75.5t-51.5 23.5q-34 0 -57.5 -27.5t-23.5 -73.5q0 -40 21 -70t61 -30q32 0 54.5 25.5t21.5 76.5z" />
    <glyph glyph-name="nine" unicode="9" horiz-adv-x="583" 
d="M90 130l11 5q63 -30 113 -30q45 0 76 16q24 12 40.5 30t25.5 41.5t13 40t8 42.5q-63 -47 -139 -47q-84 0 -145.5 59.5t-61.5 172.5q0 102 64.5 166t181.5 64q41 0 78 -9q189 -47 189 -323q0 -184 -83.5 -278t-239.5 -94q-52 0 -133 18l-5 7zM374 423q2 22 -4 64
q-8 43 -35 67.5t-60 24.5q-56 0 -77 -55q-9 -24 -9 -54q0 -52 27.5 -83t66.5 -31q41 0 64 23.5t27 43.5z" />
    <glyph glyph-name="colon" unicode=":" horiz-adv-x="292" 
d="M244 154l6 -6l2 -141l-5 -6l-160 -4l-5 7l-3 139l5 8zM246 532l5 -6l1 -142l-5 -5l-162 -4l-5 6v140l5 7z" />
    <glyph glyph-name="semicolon" unicode=";" horiz-adv-x="292" 
d="M253 155l5 -7q-54 -117 -108 -258l-8 -5l-116 -4l-4 7q38 126 57 255l6 6q80 1 168 6zM247 532l6 -6v-142l-5 -6l-161 -4l-5 6v141l5 6z" />
    <glyph glyph-name="less" unicode="&#x3c;" horiz-adv-x="667" 
d="M667 109v-112l-667 303v104l667 305v-113l-529 -244z" />
    <glyph glyph-name="equal" unicode="=" horiz-adv-x="667" 
d="M667 249v-103h-667v103h667zM667 437v-103h-667v103h667z" />
    <glyph glyph-name="greater" unicode="&#x3e;" horiz-adv-x="667" 
d="M667 300l-667 -303v112l528 243l-528 244v113l667 -305v-104z" />
    <glyph glyph-name="question" unicode="?" horiz-adv-x="458" 
d="M278 154l5 -6l2 -141l-5 -6l-160 -4l-5 7l-3 139l6 8zM280 244l-6 -9q-60 0 -143 -4l-5 7q5 37 13 56.5t35 59.5l35 50q51 79 51 137q0 52 -30.5 78.5t-75.5 26.5q-60 0 -125 -47l-9 6l5 125l6 8q101 33 168 33q73 0 121 -23q34 -15 57 -39.5t33 -51.5t14 -47t4 -38
q0 -80 -66 -180l-36 -54q-25 -35 -32 -49t-14 -45z" />
    <glyph glyph-name="at" unicode="@" horiz-adv-x="896" 
d="M783 89l40 -51q-167 -162 -368 -162q-51 0 -102 11t-103 38t-91.5 67t-64.5 103t-25 141q0 195 133.5 335.5t323.5 140.5q146 0 223.5 -83t77.5 -205q0 -139 -72 -247.5t-163 -108.5q-52 0 -75 39q-9 16 -11 38q-60 -76 -135 -76q-55 0 -95 41.5t-40 123.5
q0 111 63.5 198.5t150.5 87.5q75 0 111 -72l12 51h79l-33 -154q-28 -132 -28 -170q0 -17 7.5 -26t17.5 -9q42 0 91 87t49 191q0 62 -21 108.5t-56.5 71.5t-74.5 36.5t-82 11.5q-154 0 -269 -121.5t-115 -288.5q0 -64 19.5 -115t51 -83.5t73.5 -54.5t84.5 -31t86.5 -9
q182 0 330 146zM532 349q1 45 -22 70t-53 25q-38 0 -69 -34t-46 -80.5t-15 -91.5q0 -46 22 -69.5t50 -23.5q51 0 91.5 62t41.5 142z" />
    <glyph glyph-name="A" unicode="A" horiz-adv-x="667" 
d="M464 709l7 -6q49 -190 192 -695l-5 -8q-78 1 -174 -3l-7 6l-43 185h-216l-49 -182l-7 -6h-156l-4 7q152 436 232 693l7 6q127 0 223 3zM253 309h152l-37 156l-30 130l-35 -117z" />
    <glyph glyph-name="B" unicode="B" horiz-adv-x="646" 
d="M246 0h-174l-7 4q3 213 3 425q0 151 -5 271l6 6l140 2q68 2 129 2q78 0 126.5 -12.5t78.5 -44.5q40 -45 40 -112q0 -37 -16 -70q-12 -25 -31 -43t-33 -25.5t-36 -16.5q44 -8 62 -18q41 -20 62.5 -60.5t21.5 -90.5q0 -109 -84 -169q-35 -24 -89.5 -35.5t-92 -12.5
t-101.5 0zM239 304v-192q93 -2 127 9q62 22 62 86q0 57 -40 82q-20 12 -52 14.5t-97 0.5zM239 598v-175q93 0 118 11q51 26 51 81q0 84 -103 84q-8 0 -31.5 -0.5t-34.5 -0.5z" />
    <glyph glyph-name="C" unicode="C" 
d="M579 179l7 -4l-7 -149l-5 -6q-86 -35 -171 -35q-89 0 -159 29t-113.5 79.5t-66 115t-22.5 137.5q0 70 19 133.5t58 119t109 89t163 33.5q90 0 185 -37l4 -5l-9 -138l-9 -2q-63 48 -141 48q-58 0 -98.5 -24t-59.5 -63t-27 -75.5t-8 -74.5q0 -105 53.5 -166t140.5 -61
q85 0 157 56z" />
    <glyph glyph-name="D" unicode="D" horiz-adv-x="708" 
d="M188 0h-118l-6 4q3 123 3 239q0 265 -8 457l6 6l106 1q92 4 138 4q43 0 70.5 -1.5t67.5 -8t68 -19.5t56.5 -38t48.5 -61q46 -83 46 -211q0 -110 -33 -191q-15 -37 -38 -66t-46.5 -48t-55.5 -32.5t-57.5 -20t-60.5 -10.5t-56 -4.5t-52 -0.5q-53 0 -79 1zM243 129
q38 0 60 1t54.5 10t53.5 26q71 59 71 201q0 61 -14 104t-31 63.5t-46.5 31.5t-45.5 12.5t-43 1.5q-21 0 -61 -2q-1 -54 -1 -162q0 -140 3 -287z" />
    <glyph glyph-name="E" unicode="E" horiz-adv-x="562" 
d="M519 135l6 -7l-7 -122l-8 -6h-440l-5 4q5 175 5 294q0 273 -8 402l6 6h439l5 -4l-7 -116l-5 -6q-121 3 -257 3v-159l242 4l5 -6l-6 -113l-7 -6h-234l2 -175q136 0 274 7z" />
    <glyph glyph-name="F" unicode="F" horiz-adv-x="521" 
d="M461 288h-219q4 -162 11 -282l-5 -6q-105 0 -178 -3l-5 5q4 230 4 345q0 191 -10 354l6 6q258 -1 434 2l6 -5l-11 -124l-6 -7l-245 3v-167l228 8l5 -6l-8 -117z" />
    <glyph glyph-name="G" unicode="G" horiz-adv-x="708" 
d="M655 198v-23q0 -20 0.5 -43t1.5 -51.5t1 -43.5l-5 -8q-47 -15 -72 -22.5t-70.5 -14.5t-93.5 -7q-72 0 -134 17q-109 31 -171 111q-70 90 -70 231q0 122 51 211q98 166 318 166q106 0 213 -46l5 -6q-10 -73 -15 -138l-8 -3q-31 21 -49 31t-50.5 20t-68.5 10
q-96 0 -153.5 -64t-57.5 -180q0 -34 7.5 -67.5t25.5 -71t56.5 -61t93.5 -23.5q26 0 75 11q2 102 -8 213l5 6l170 3l5 -6q-2 -102 -2 -151z" />
    <glyph glyph-name="H" unicode="H" horiz-adv-x="729" 
d="M659 709l5 -6q-2 -154 -2 -194q0 -272 11 -503l-5 -6q-81 1 -180 -3l-5 6q5 151 3 309q-80 2 -120 2q-54 0 -120 -3q1 -163 8 -305l-5 -6q-83 1 -179 -3l-5 6q4 168 4 223q0 247 -11 474l6 6q102 0 179 3l5 -6l-2 -264q18 0 53 -0.5t53 -0.5q45 0 133 2q-1 152 -8 260
l5 6q97 0 177 3z" />
    <glyph glyph-name="I" unicode="I" horiz-adv-x="313" 
d="M245 709l5 -6q-5 -230 -5 -414q0 -154 7 -283l-6 -6q-103 0 -178 -3l-5 6q6 156 6 283q0 252 -9 414l4 6q90 -1 181 3z" />
    <glyph glyph-name="J" unicode="J" horiz-adv-x="354" 
d="M3 -2l-5 7v123l6 6q23 -7 36 -7q22 0 37.5 9t23 20.5t11.5 37t4.5 43t0.5 53.5q0 154 -9 410l5 6q99 0 176 3l5 -6v-356v-42q2 -50 2 -75q0 -29 -0.5 -45t-5 -45t-12.5 -45.5t-24.5 -38.5t-40 -33.5t-60 -20t-83.5 -8.5q-17 0 -67 4z" />
    <glyph glyph-name="K" unicode="K" horiz-adv-x="646" 
d="M634 709l3 -10q-58 -65 -97.5 -116t-130.5 -181q133 -230 259 -388l-4 -11l-203 -7l-7 5q-65 119 -146 250q-29 46 -68 105q1 -189 8 -350l-5 -6q-95 0 -173 -3l-5 6q4 196 4 257q0 258 -10 440l5 6q73 -1 175 3l5 -6l-5 -307q72 97 199 304l8 6q80 -1 188 3z" />
    <glyph glyph-name="L" unicode="L" horiz-adv-x="521" 
d="M490 137l5 -5l-8 -126l-5 -6q-216 0 -412 -3l-5 6q0 79 0.5 237t0.5 237q0 123 -5 223l6 6q87 -1 178 3l6 -6q-9 -276 -7 -574h20q81 0 226 8z" />
    <glyph glyph-name="M" unicode="M" horiz-adv-x="917" 
d="M827 709l6 -6q0 -52 6 -164q1 -32 3.5 -95t4.5 -94q2 -62 17 -344l-5 -6q-80 1 -173 -3l-5 6v240l-2 153v179l-56 -210l-40 -146l-58 -213l-6 -6q-67 1 -149 -3l-6 6l-67 258l-38 142l-44 177l-4 -189l-6 -194l-3 -191l-6 -6q-56 1 -141 -3l-5 6q25 362 36 697l6 6
q130 0 237 3l5 -6l50 -192l28 -113l44 -179l47 174l40 145l46 162l6 6q128 0 232 3z" />
    <glyph glyph-name="N" unicode="N" horiz-adv-x="729" 
d="M661 709l6 -6q-2 -224 -2 -335q0 -73 2 -363l-5 -5q-71 0 -132 -3l-7 5l-89 130l-100 147q-71 103 -131 203l6 -134l3 -123l10 -219l-5 -6q-79 0 -146 -3l-5 6q3 291 3 293q0 156 -8 404l5 6q83 -1 165 3l7 -5q15 -24 115 -176l91 -133q53 -79 85 -133l-4 165l-4 138
l-7 135l5 6q59 -1 142 3z" />
    <glyph glyph-name="O" unicode="O" horiz-adv-x="750" 
d="M633 614q75 -93 75 -259q0 -82 -26.5 -165t-92.5 -138q-81 -67 -214 -67q-144 0 -231 81q-102 94 -102 283q0 51 9 102q30 158 152 228q73 42 179 42q114 0 191 -51q34 -22 60 -56zM475 550q-38 46 -97 46q-39 0 -73 -20q-76 -49 -76 -212q0 -252 148 -252q151 0 144 258
q-2 58 -11 99q-11 53 -35 81z" />
    <glyph glyph-name="P" unicode="P" 
d="M194 708l88 2q51 0 79.5 -1t70.5 -9.5t70 -24.5q93 -53 93 -185q0 -98 -52 -161q-26 -31 -60 -50.5t-79.5 -26.5t-77.5 -8.5t-87 -1.5q0 -127 4 -236l-5 -6q-73 1 -170 -3l-6 6q6 244 6 365q0 104 -7 332l6 6zM239 587v-222q93 0 124 17q53 29 53 101q0 48 -25 76t-87 29
q-43 0 -65 -1z" />
    <glyph glyph-name="Q" unicode="Q" horiz-adv-x="750" 
d="M691 -173l-9 -2q-257 123 -352 163l-7 1q-89 13 -149 52q-43 28 -72 72t-40.5 92.5t-15 79.5t-3.5 60q0 180 91.5 278t245.5 98q144 0 226 -76q54 -49 78.5 -125.5t24.5 -157.5q0 -136 -53 -225q-18 -32 -41 -55t-38 -32.5t-40 -22.5q86 -33 203 -70l3 -8zM522 347
q2 135 -38 193q-38 55 -109 55q-51 0 -87 -35.5t-49 -102.5q-8 -43 -8 -95q0 -126 38 -187q37 -61 109 -61q144 0 144 233z" />
    <glyph glyph-name="R" unicode="R" horiz-adv-x="625" 
d="M286 275l-49 -2q1 -139 10 -267l-6 -6q-76 1 -171 -3l-6 6q4 111 4 221q0 275 -8 477l5 6h122l70 1q97 2 142 -2.5t81 -23.5q38 -20 60.5 -56.5t28 -64.5t5.5 -57q0 -36 -10.5 -66.5t-24 -49t-35 -35t-34.5 -23t-32 -15.5q34 -60 73 -122q75 -119 121 -179l-6 -12
q-32 0 -94 -2q-29 -1 -92 -5l-8 5q-77 158 -146 275zM239 586v-195q84 2 114 20q44 27 44 88q0 31 -11.5 50.5t-33 27t-35.5 9t-36 1.5q-28 0 -42 -1z" />
    <glyph glyph-name="S" unicode="S" horiz-adv-x="562" 
d="M349 430l26 -10q50 -23 77 -43q75 -58 75 -159q0 -143 -120 -202q-66 -31 -166 -31q-85 0 -157 25q-5 1 -10.5 3t-12 5t-10.5 4l-6 8l7 141l10 3q79 -63 171 -63q60 0 90 25t30 58q0 36 -29.5 58.5t-92.5 48.5l-33 15q-31 15 -48.5 25.5t-45.5 34t-42 56.5t-14 76
q0 90 61 151.5t192 61.5q97 0 185 -37l5 -7l-8 -131l-9 -4q-26 18 -42 27t-48.5 19t-67.5 10q-46 0 -70.5 -21.5t-24.5 -48.5q0 -31 27 -49t101 -49z" />
    <glyph glyph-name="T" unicode="T" horiz-adv-x="521" 
d="M504 574l-155 4q-3 -96 -3 -150q0 -225 7 -421l-6 -6q-78 0 -177 -4l-6 6q8 255 7 573l-163 -4l-5 6l7 123l7 6h495l5 -3l-7 -125z" />
    <glyph glyph-name="U" unicode="U" horiz-adv-x="688" 
d="M630 709l5 -6l-3 -297v-102q-2 -106 -12 -154t-47 -87q-74 -78 -220 -78q-176 0 -249 104q-25 34 -33.5 78t-10.5 132v74q-1 192 -5 327l6 6q86 -1 176 3l5 -6q-3 -148 -3 -257q0 -106 2 -159q3 -89 23 -124q33 -53 102 -53q56 0 88 36q19 23 24.5 61.5t5.5 123.5
q0 123 -10 369l6 6q72 -1 150 3z" />
    <glyph glyph-name="V" unicode="V" horiz-adv-x="583" 
d="M403 7l-6 -7q-99 1 -213 -3l-6 6l-30 123q-46 178 -161 575l5 6q82 0 179 7l6 -5q31 -145 53 -234l21 -90l53 -236l43 185l32 131q28 110 52 235l6 6q80 0 155 3l5 -5q-105 -357 -133.5 -460.5t-60.5 -236.5z" />
    <glyph glyph-name="W" unicode="W" horiz-adv-x="938" 
d="M787 6l-5 -6q-107 1 -235 -3l-5 6l-21 137l-25 156q-18 107 -33 231l-36 -214l-33 -183l-21 -124l-7 -6q-119 1 -226 -3l-6 6q-58 312 -143 697l5 7q96 3 173 8l6 -5l33 -198l26 -146q21 -121 37 -237l25 138l39 205l40 230l6 6l198 5l6 -7l25 -154l29 -168
q22 -128 40 -262l32 172l29 153q20 103 43 253l6 6q81 0 152 3l5 -6q-109 -453 -159 -697z" />
    <glyph glyph-name="X" unicode="X" 
d="M594 15l-4 -9l-189 -9l-7 6q-44 98 -102 218l-103 -215l-7 -6q-98 0 -166 -3l-5 7q134 223 206 353q-21 38 -59 105q-24 41 -71.5 120.5t-68.5 115.5l3 9q82 1 189 7l6 -5q47 -105 101 -213q83 186 91 205l8 6q82 -1 167 3l4 -8q-70 -113 -105 -175q-9 -16 -94 -161
q92 -167 206 -351z" />
    <glyph glyph-name="Y" unicode="Y" 
d="M401 6l-6 -6q-93 0 -177 -3l-5 6q7 138 7 261v32q-15 26 -43 78q-11 20 -91.5 158t-96.5 166l3 8q89 1 190 7l7 -5q45 -96 62 -130q60 -114 72 -138q68 132 127 260l6 6q81 0 156 3l4 -7l-221 -402q0 -138 6 -294z" />
    <glyph glyph-name="Z" unicode="Z" horiz-adv-x="562" 
d="M524 6l-7 -6h-495l-6 6q9 18 30 62t65 135t81 168l56 120l42 87l-247 -4l-6 6l9 120l6 6h478l5 -5l-275 -572q149 1 267 6l6 -7z" />
    <glyph glyph-name="bracketleft" unicode="[" horiz-adv-x="333" 
d="M328 -210l-7 -6q-122 1 -236 -2l-6 7q3 120 3 520q0 164 -7 447l6 7l246 3l6 -7l-4 -85l-6 -7l-93 3q-5 -167 -5 -290q0 -117 5 -502l98 2l5 -6z" />
    <glyph glyph-name="backslash" unicode="\" horiz-adv-x="479" 
d="M496 -137l-5 -9q-112 2 -117 2l-9 7q-80 208 -177 431q-60 140 -91 211q-83 195 -109 251l4 9q20 0 59 -0.5t59 -0.5l7 -6q98 -258 272 -653q4 -10 30 -68t49 -110t28 -64z" />
    <glyph glyph-name="bracketright" unicode="]" horiz-adv-x="333" 
d="M5 757l7 6q96 -1 238 2l6 -7q-4 -128 -4 -501q0 -182 7 -465l-6 -7l-246 -2l-7 6l4 85l6 7l95 -2q4 192 4 291q0 112 -5 499l-98 -2l-6 6z" />
    <glyph glyph-name="asciicircum" unicode="^" horiz-adv-x="729" 
d="M414 706l187 -383h-118l-116 246l-122 -246h-117l195 383h91z" />
    <glyph glyph-name="underscore" unicode="_" horiz-adv-x="500" 
d="M510 -75v-50h-520v50h520z" />
    <glyph glyph-name="grave" unicode="`" horiz-adv-x="292" 
d="M192 771l6 -4q24 -85 59 -166l-5 -7h-108l-7 4q-60 101 -103 165l4 8h154z" />
    <glyph glyph-name="a" unicode="a" horiz-adv-x="562" 
d="M505 298l-1 -74q0 -119 7 -217l-5 -7q-64 1 -159 -3l-6 7v37q-65 -53 -139 -53q-75 0 -125 48.5t-50 127.5q0 90 75 137q43 26 91 38.5t145 25.5q0 30 -13 43q-19 19 -65 19q-67 0 -167 -40l-8 4l5 109l6 8q111 33 196 33q143 0 188 -72q18 -29 22 -62t3 -109zM340 139
v121q-34 -5 -53 -8.5t-44.5 -12.5t-37.5 -25.5t-12 -39.5q0 -30 18.5 -45.5t47.5 -15.5q35 0 81 26z" />
    <glyph glyph-name="b" unicode="b" 
d="M132 -2l-66 -1l-7 7q2 372 2 442q0 203 -11 319l6 7l166 26l8 -6l-6 -290q62 40 129 40q99 0 157.5 -70t58.5 -177q0 -125 -78 -208q-53 -56 -127.5 -72.5t-211.5 -16.5h-20zM228 403v-294q77 2 110 25q24 17 41.5 53t17.5 85q0 70 -27.5 110.5t-76.5 40.5q-25 0 -65 -20
z" />
    <glyph glyph-name="c" unicode="c" horiz-adv-x="479" 
d="M451 144l8 -5l-4 -120l-6 -6q-77 -22 -129 -22q-80 0 -138.5 25.5t-89 67.5t-44 86.5t-13.5 91.5q0 35 6.5 69t25.5 73.5t48.5 69t81.5 49t119 19.5q58 0 140 -26l5 -6q-8 -52 -13 -120l-10 -3q-19 13 -29.5 19t-29 11.5t-39.5 5.5q-67 0 -98 -46.5t-31 -110.5
q0 -26 6 -50t19.5 -49t42 -40t68.5 -15q50 0 104 32z" />
    <glyph glyph-name="d" unicode="d" 
d="M550 6l-5 -6q-94 0 -163 -3l-5 6l2 39q-18 -16 -30 -24.5t-40.5 -19t-61.5 -10.5q-77 0 -131 44q-80 66 -80 205q0 164 99 240q35 28 83 41.5t79.5 14.5t82.5 0q1 122 -6 233l5 6l165 26l7 -6q-8 -264 -8 -505q0 -123 7 -281zM380 413q-21 3 -34 3q-134 0 -134 -163
q0 -12 0.5 -23t6 -35.5t14.5 -41.5t29 -30.5t47 -13.5q28 0 68 24q4 158 3 280z" />
    <glyph glyph-name="e" unicode="e" horiz-adv-x="562" 
d="M504 148l7 -3l-7 -113l-6 -8q-35 -14 -51.5 -19.5t-49 -11t-71.5 -5.5q-203 0 -266 147q-24 53 -24 131q0 129 71 202.5t190 73.5q39 0 71 -9q109 -26 146 -150q14 -50 16 -149l-6 -7l-323 -6q8 -42 22 -61q37 -55 125 -55q74 0 156 43zM201 327l167 4q0 45 -15 69
q-21 35 -64 35q-23 0 -40 -11q-41 -26 -48 -97z" />
    <glyph glyph-name="f" unicode="f" horiz-adv-x="354" 
d="M260 7l-6 -6q-78 0 -169 -4l-6 7q6 178 6 412l-76 -2l-6 6l10 106l6 5l65 -1l-1 60q0 37 1.5 58t16 55t43.5 55q48 36 143 36q34 0 70 -3l5 -7l-9 -113l-7 -4l-30 3q-19 0 -32 -7t-19.5 -16t-10 -27t-4 -31t-0.5 -36l-1 -23h91l5 -6l-9 -106l-7 -7l-79 4q-1 -205 10 -408
z" />
    <glyph glyph-name="g" unicode="g" horiz-adv-x="542" 
d="M244 169l-16 -35q45 -16 99 -25l24 -4q29 -7 44.5 -11t44 -17t44.5 -29t29 -44t13 -64q0 -79 -68.5 -134t-198.5 -55q-112 0 -171 42q-62 45 -62 113q0 67 77 126l-42 30v9q36 65 66 122q-45 25 -67 56q-29 40 -29 97q0 86 64 135q30 25 75.5 37t76 13t79.5 0l46 -1
q60 -1 161 3l6 -5l-7 -100l-6 -5l-69 4q27 -39 27 -87q0 -65 -38.5 -102.5t-89.5 -55.5q-45 -15 -112 -13zM326 349q1 36 -16.5 62t-49.5 26q-28 0 -47.5 -22.5t-19.5 -59.5q0 -31 9 -52q18 -42 60 -42q11 0 23 4t26.5 25.5t14.5 58.5zM241 -24l-39 10q-29 -34 -29 -66
q0 -31 24 -54t75 -23q46 0 68.5 18t22.5 43t-20 39q-9 7 -21.5 11t-80.5 22z" />
    <glyph glyph-name="h" unicode="h" 
d="M550 7l-6 -6q-93 0 -165 -4l-5 7q0 16 0.5 49t0.5 49q0 164 -3 210q-2 18 -3 26t-5 24.5t-10 24.5t-17.5 15t-27.5 7q-33 0 -77 -30q1 -204 9 -372l-6 -6q-96 0 -170 -4l-5 7q4 196 4 256q0 122 -3 243q-2 146 -13 262l5 6l171 27l6 -7l-3 -308q98 59 170 59
q77 0 115 -54q20 -29 25 -68.5t6 -123.5v-75q2 -116 7 -214z" />
    <glyph glyph-name="i" unicode="i" horiz-adv-x="292" 
d="M241 7l-7 -7q-78 1 -173 -3l-6 7q6 164 6 252q0 148 -11 253l6 6l172 30l7 -8q-3 -255 -3 -256q0 -135 9 -274zM225 641l-5 -7q-98 -12 -158 -23l-7 6q1 19 1 58q0 27 -3 81l6 7l163 20l6 -6z" />
    <glyph glyph-name="j" unicode="j" horiz-adv-x="292" 
d="M225 545l8 -9q0 -26 -1 -72t-1.5 -83.5t-0.5 -70.5q0 -98 3 -195l1 -70q2 -70 -5 -111.5t-35 -79.5q-59 -77 -193 -105l-7 4l-26 104l5 8q57 12 74.5 44.5t17.5 99.5q0 79 -3 181q-2 177 -13 319l6 6q82 12 170 30zM229 638l-6 -5q-62 -7 -159 -20l-7 5l-3 137l7 7
l162 20l6 -7v-137z" />
    <glyph glyph-name="k" unicode="k" horiz-adv-x="562" 
d="M574 13l-7 -9l-180 -7l-9 6q-58 121 -149 288l1 -115l6 -169l-6 -7q-95 0 -162 -3l-7 7q2 270 -1 486q-2 138 -12 275l6 7l174 26l8 -6q-6 -179 -7 -378v-111q52 78 134 220l10 7l163 2l5 -10q-65 -84 -147 -195q86 -155 180 -314z" />
    <glyph glyph-name="l" unicode="l" horiz-adv-x="292" 
d="M236 7l-6 -7q-77 1 -167 -3l-6 7q6 148 6 267q0 118 -1 177q-2 186 -13 317l4 6l171 27l7 -7q-5 -135 -5 -248q0 -306 10 -536z" />
    <glyph glyph-name="m" unicode="m" horiz-adv-x="896" 
d="M841 7l-6 -6q-92 0 -167 -3l-6 6q1 15 2 105.5t1 107.5q0 9 0.5 28t0.5 29q0 72 -13 106t-53 34q-30 0 -69 -25l1 -101v-37q1 -135 8 -244l-6 -6q-90 0 -166 -4l-6 7q3 122 3 248q0 32 -0.5 50t-4 41.5t-10 35.5t-19 21t-30.5 9q-30 0 -69 -28q1 -201 9 -374l-6 -6
q-73 0 -169 -3l-5 6q0 28 0.5 86t0.5 86q0 193 -14 333l6 7q75 11 170 29l9 -9v-56q30 21 47 31.5t47 20.5t61 10q37 0 64 -13t35.5 -23.5t19.5 -28.5q93 65 177 65q85 0 124 -57q14 -20 20 -50.5t7 -53.5t0 -67v-75q0 -120 6 -232z" />
    <glyph glyph-name="n" unicode="n" 
d="M550 7l-7 -6q-64 0 -163 -3l-6 6q0 17 0.5 51.5t0.5 51.5q0 159 -3 208q-2 19 -4 31t-8 29t-19 26t-32 9q-31 0 -77 -31q1 -195 8 -372l-6 -6q-95 0 -167 -3l-6 6q2 128 2 192q0 161 -14 313l6 7q82 11 169 29l10 -7l-2 -55q33 19 50.5 28.5t49.5 20t60 10.5
q88 0 124 -60q17 -28 21.5 -64.5t5.5 -118.5v-78q3 -142 7 -214z" />
    <glyph glyph-name="o" unicode="o" 
d="M569 266q0 -278 -269 -278q-156 0 -218 93q-47 69 -47 183q0 137 70 207t202 70q73 0 122 -19q140 -55 140 -256zM396 267q0 105 -29 140q-25 31 -64 31q-48 0 -73 -45q-20 -35 -20 -128q0 -112 36 -148q25 -23 56 -23q30 0 49.5 14.5t28.5 42t12.5 54t3.5 62.5z" />
    <glyph glyph-name="p" unicode="p" 
d="M226 535l-2 -40q69 47 136 47q87 0 148 -70t61 -185q0 -133 -85 -213q-37 -35 -88.5 -53.5t-83 -21t-83.5 -3.5l7 -238l-6 -5q-74 1 -168 -3l-6 5q5 188 5 300q0 201 -3 277t-12 176l6 7q78 10 166 29zM228 399v-292q74 2 107 25q59 41 59 138q0 80 -36 119
q-27 30 -70 30q-26 0 -60 -20z" />
    <glyph glyph-name="q" unicode="q" 
d="M542 531l7 -6q-5 -145 -5 -261q0 -316 9 -506l-5 -5q-69 1 -166 -3l-6 5q3 124 3 270q-61 -37 -122 -37q-107 0 -164.5 72.5t-57.5 182.5q0 69 25.5 134.5t85.5 104.5q58 36 129 43.5t267 5.5zM378 128l-3 287q-10 1 -29 1q-40 0 -68 -14.5t-42 -39t-19.5 -48.5t-5.5 -50
q0 -12 0.5 -21.5t3 -30.5t9.5 -36.5t18 -32.5t30.5 -26t44.5 -9q28 0 61 20z" />
    <glyph glyph-name="r" unicode="r" horiz-adv-x="375" 
d="M349 371l-9 -4q-25 14 -41 14q-24 0 -39 -10t-20.5 -30t-7 -33.5t-1.5 -37.5q0 -60 10 -263l-5 -7q-73 1 -170 -3l-6 6q3 124 3 247q0 146 -9 259l6 6q90 14 166 30l8 -8l-3 -92q42 97 119 97q4 0 11 -0.5t10 -0.5l6 -7z" />
    <glyph glyph-name="s" unicode="s" horiz-adv-x="479" 
d="M270 345l49 -18q19 -7 29.5 -11.5t29 -14.5t29 -21t22 -27t17 -38t5.5 -48q0 -14 -1 -22q-20 -157 -244 -157q-71 0 -164 34l-5 9q5 64 7 113l9 4q25 -20 40 -28q55 -28 106 -28q39 0 59 15.5t20 36.5q0 17 -13.5 30t-25.5 18t-32 12l-38 14q-26 10 -41.5 18t-39.5 26
t-36.5 46.5t-12.5 66.5q0 51 27 88q55 79 199 79q63 0 153 -25l5 -6l-10 -109l-9 -3q-66 42 -125 42q-28 0 -45 -9.5t-21 -18t-4 -17.5q0 -19 15 -29.5t46 -21.5z" />
    <glyph glyph-name="t" unicode="t" horiz-adv-x="354" 
d="M340 115l8 -4l-10 -103l-7 -7q-70 -12 -105 -12q-45 0 -76 12t-47 27.5t-24 45.5t-9.5 50t-1.5 56q0 26 2 76l3 159l-63 -2l-6 6l9 107l6 5l54 -2l-1 125l4 7q78 20 157 43l7 -6l-3 -168h100l6 -6l-10 -107l-6 -6l-90 4l-2 -141q-2 -85 2 -121q1 -9 3 -14.5t7 -14.5
t17 -13.5t30 -4.5q15 0 46 9z" />
    <glyph glyph-name="u" unicode="u" 
d="M540 535l7 -8q-3 -141 -3 -282q0 -140 7 -239l-6 -6q-87 0 -160 -3l-7 6l1 45q-25 -19 -40 -29t-45 -20.5t-63 -10.5q-84 0 -131 53q-26 30 -33.5 70.5t-6.5 126.5v70q0 115 -7 213l7 6l165 8l7 -8l-2 -202q-1 -25 -1 -76q0 -24 0.5 -37.5t4 -35t11 -33t21.5 -20.5t35 -9
q25 0 75 33q1 40 1 85q0 176 -7 289l7 6z" />
    <glyph glyph-name="v" unicode="v" horiz-adv-x="500" 
d="M336 8l-6 -8q-75 1 -163 -3l-7 7q-28 104 -166 513l4 8q89 1 175 11l7 -6q18 -86 43 -178l19 -77l25 -108l51 197q20 80 37 159l7 7l140 3l5 -7q-56 -164 -99 -293z" />
    <glyph glyph-name="w" unicode="w" horiz-adv-x="812" 
d="M678 7l-6 -7q-84 1 -184 -3l-7 7l-42 217l-15 74l-15 76l-25 -121l-28 -121l-26 -122l-6 -7q-94 1 -186 -3l-7 6q-35 155 -137 512l6 8l162 12l6 -5l34 -166l24 -108l19 -99l19 92l24 110l33 164l7 7l192 3l6 -7l35 -173l22 -104l17 -89l19 92l28 121l29 150l7 7l130 3
l6 -8q-25 -94 -34 -124q-71 -253 -107 -394z" />
    <glyph glyph-name="x" unicode="x" horiz-adv-x="521" 
d="M512 15l-4 -9q-122 -5 -180 -10l-9 5q-35 74 -76 147q-21 -35 -34 -63q-8 -14 -21.5 -41.5t-18.5 -37.5l-8 -6l-151 -1l-4 7q95 137 172 259q-113 176 -163 247l6 8q66 3 180 12l7 -6q5 -12 28 -56.5t29 -57.5q2 -4 6 -11.5t6 -11.5q30 56 66 133l8 7h144l4 -9
q-24 -35 -157 -237q32 -52 47 -76q114 -178 123 -192z" />
    <glyph glyph-name="y" unicode="y" horiz-adv-x="500" 
d="M507 533l4 -8q-6 -16 -44 -118q-98 -258 -135 -371t-79 -277l-7 -6q-12 0 -38 0.5t-38 0.5q-29 0 -79 -2l-5 8q52 114 94 221q-74 230 -191 538l5 7q88 2 177 9l8 -6l40 -152l29 -106l19 -71l22 75l26 86q26 83 45 162l8 7z" />
    <glyph glyph-name="z" unicode="z" horiz-adv-x="479" 
d="M444 4l-8 -4h-413l-4 7q145 284 204 409l-178 -2l-5 6l10 104l5 7h396l5 -9q-49 -100 -103 -203q-55 -111 -98 -207l193 7l6 -5z" />
    <glyph glyph-name="braceleft" unicode="{" horiz-adv-x="354" 
d="M35 245v58q15 5 23 8t19 13.5t19 26.5q13 28 13 113v92q0 74 7.5 108.5t32.5 59.5t64.5 33t142.5 9v-64q-65 -16 -86 -51q-18 -27 -18 -117v-32q0 -59 -1 -88q-3 -70 -26 -98t-69 -42q46 -14 69 -42t26 -98q1 -29 1 -88v-32q0 -90 18 -117q21 -35 86 -51v-64
q-103 1 -142.5 9t-64.5 33t-32.5 59.5t-7.5 108.5v92q0 85 -13 113q-8 16 -19 26.5t-19 13.5t-23 8z" />
    <glyph glyph-name="bar" unicode="|" horiz-adv-x="229" 
d="M166 750v-1000h-103v1000h103z" />
    <glyph glyph-name="braceright" unicode="}" horiz-adv-x="354" 
d="M319 303v-58q-15 -5 -23 -8t-19 -13.5t-19 -26.5q-13 -28 -13 -113v-92q0 -74 -7.5 -108.5t-32.5 -59.5t-64.5 -33t-142.5 -9v64q65 16 86 51q18 27 18 117v32q0 59 1 88q3 70 26 98t69 42q-46 14 -69 42t-26 98q-1 29 -1 88v32q0 90 -18 117q-21 35 -86 51v64
q103 -1 142.5 -9t64.5 -33t32.5 -59.5t7.5 -108.5v-92q0 -85 13 -113q8 -16 19 -26.5t19 -13.5t23 -8z" />
    <glyph glyph-name="asciitilde" unicode="~" horiz-adv-x="729" 
d="M570 377l46 -89q-75 -81 -147 -81q-36 0 -103 32l-29 14q-50 23 -77 23q-28 0 -45.5 -13t-53.5 -55l-48 87q61 89 145 89q38 0 107 -32l34 -16q49 -21 73 -21q46 0 98 62z" />
    <glyph glyph-name="exclamdown" unicode="&#xa1;" horiz-adv-x="292" 
d="M47 615l-6 5v143l5 5l159 3l5 -7v-139l-7 -7q-84 0 -156 -3zM56 512l7 9l121 5l6 -7q12 -347 30 -500l-6 -7l-176 -15l-7 6q23 356 25 509z" />
    <glyph glyph-name="cent" unicode="&#xa2;" horiz-adv-x="500" 
d="M436 146l10 -6q-6 -60 -7 -114l-7 -8q-60 -27 -135 -27q-15 0 -30 1q-9 -37 -17 -77l-6 -6q-34 1 -67 0l-5 6q5 15 10.5 33.5t9 30.5t6.5 21q-62 16 -100.5 61t-50.5 91t-12 99q0 139 73 213.5t187 74.5q19 0 34 -1q9 43 13 67l7 6q39 0 66 1l5 -7q-10 -31 -21 -75
q27 -4 53 -11l5 -7q-10 -65 -15 -127l-9 -4q-36 17 -65 23l-72 -292q14 -4 27 -4q55 0 113 38zM231 147l66 261q-53 -3 -80 -52q-22 -40 -22 -98q0 -64 36 -111z" />
    <glyph glyph-name="sterling" unicode="&#xa3;" horiz-adv-x="521" 
d="M483 114l5 -5l-5 -101l-6 -8h-431l-7 10q43 127 48 286l-63 -1l-5 6l4 86l7 6l55 -2q-3 75 -3 76q0 78 29 125q57 94 219 94q68 0 155 -24l4 -7l-8 -106l-9 -5q-59 23 -106 23q-34 0 -57.5 -10t-35.5 -22.5t-18 -35t-7 -36.5t-1 -38v-31l180 2l6 -6l-7 -88l-6 -6l-174 2
q-3 -99 -20 -187q140 0 257 3z" />
    <glyph glyph-name="currency" unicode="&#xa4;" horiz-adv-x="667" 
d="M642 569l-79 -77q16 -27 24 -42t15.5 -44.5t7.5 -63.5q0 -39 -9 -72.5t-16.5 -47.5t-22.5 -37l79 -79l-78 -77l-78 79q-28 -16 -42.5 -23.5t-44 -15t-64.5 -7.5q-82 0 -154 47l-79 -78l-77 77l80 78q-17 27 -25 43t-15.5 45.5t-7.5 65.5q0 35 7.5 64.5t15 44.5t24.5 43
l-77 78l76 76l78 -77q27 16 43 24t46.5 15.5t66.5 7.5q34 0 63.5 -7.5t44 -15t42.5 -24.5l78 77zM508 339q1 78 -52 127.5t-122 49.5q-72 0 -124 -49t-52 -129q0 -76 52 -126t123 -50q74 0 124 50t51 127z" />
    <glyph glyph-name="yen" unicode="&#xa5;" horiz-adv-x="583" 
d="M512 154l-6 -6q-26 1 -53 1h-74q1 -82 5 -143l-6 -5q-89 0 -164 -3l-5 5q4 99 5 146h-53q-53 0 -78 -1l-6 8q5 42 6 84l6 6q9 0 62.5 -0.5t63.5 -0.5v39q-11 22 -21 38q-80 -1 -111 -1l-6 7q5 44 6 84l6 7q43 0 52 -1q-24 43 -141 250l3 7q107 3 177 7l6 -4
q41 -89 62 -132q2 -5 17 -34t28.5 -55.5t17.5 -35.5q57 113 118 249l6 6q81 0 145 3l4 -7q-4 -7 -136 -254h29l34 2l6 -6q-1 -19 -5 -87l-6 -6q-2 0 -22.5 0.5t-46 0.5h-41.5q-1 -2 -9 -17t-9 -18v-42h50h33q18 0 50 2l6 -6q-2 -23 -5 -87z" />
    <glyph glyph-name="brokenbar" unicode="&#xa6;" horiz-adv-x="229" 
d="M63 -191v381h103v-381h-103zM166 308h-103v381h103v-381z" />
    <glyph glyph-name="section" unicode="&#xa7;" horiz-adv-x="542" 
d="M349 478l31 -15q27 -12 44 -22t40 -29t35 -47t12 -64q0 -35 -13 -65q-13 -31 -29.5 -50.5t-45.5 -43.5q18 -19 27 -31t18 -35t9 -51q0 -77 -62 -127.5t-177 -50.5q-71 0 -168 33l-5 8l8 110l9 5q86 -40 147 -40q36 0 61 15t25 40q0 21 -17 34t-67 36l-37 17
q-30 14 -47 22.5t-42.5 25.5t-39.5 34.5t-25 43.5t-11 57q0 51 25 95q24 38 66 64q-17 17 -25 26.5t-16 32t-8 51.5q0 72 54 118q57 49 163 49q73 0 170 -28l6 -7l-10 -107l-9 -5q-81 33 -137 33q-30 0 -52.5 -13.5t-22.5 -36.5q0 -20 18 -33t55 -29q8 -4 24.5 -11.5
t18.5 -8.5zM244 239l87 -42q46 34 46 70q0 28 -20.5 44t-77.5 43l-28 12l-47 23q-15 -12 -22.5 -19.5t-15 -21t-7.5 -28.5q0 -26 17.5 -40.5t67.5 -40.5z" />
    <glyph glyph-name="dieresis" unicode="&#xa8;" horiz-adv-x="292" 
d="M328 744l5 -5v-138l-5 -6l-136 -8l-6 6l-2 137l5 6zM106 743l5 -6v-135l-6 -6l-137 -8l-5 6l-3 136l5 6z" />
    <glyph glyph-name="copyright" unicode="&#xa9;" horiz-adv-x="833" 
d="M773 352q0 -105 -57 -196q-45 -70 -124.5 -114.5t-175.5 -44.5q-92 0 -173 44t-131.5 127t-50.5 185q0 150 103.5 253t253.5 103q149 0 252 -102.5t103 -254.5zM741 352q1 134 -91 229.5t-231 95.5q-136 0 -231 -94t-95 -231q0 -133 94 -228t231 -95q86 0 159 40.5
t118 115t46 167.5zM546 265l71 -66q-81 -87 -192 -87t-177 69.5t-66 172.5q0 104 67.5 174t175.5 70q50 0 92 -17t59.5 -32t40.5 -39l-71 -68q-56 59 -122 59q-63 0 -102.5 -41.5t-39.5 -104.5q0 -66 41.5 -106t102.5 -40q67 0 120 56z" />
    <glyph glyph-name="ordfeminine" unicode="&#xaa;" horiz-adv-x="375" 
d="M334 553l-1 -48q0 -68 3 -116q0 -2 1 -13l1 -12l-5 -5h-27h-27q-16 -2 -50 -2l-5 5v20q-39 -31 -87 -31q-52 0 -84 33t-32 81q0 29 12.5 51.5t30 36t46.5 23t53 14t58 8.5l-1.5 12t-4.5 10.5t-14 9.5t-26 3q-41 0 -90 -18l-20 -8l-7 4q0 5 1.5 36t1.5 37l5 5
q64 23 130 23q41 0 69 -9t41.5 -24.5t21 -36t7 -43t-0.5 -46.5zM223 452v74q-48 -5 -69 -17.5t-21 -35.5q0 -18 11.5 -27.5t28.5 -9.5q20 0 50 16z" />
    <glyph glyph-name="guillemotleft" unicode="&#xab;" horiz-adv-x="521" 
d="M132 471l7 6l119 3l5 -9q-41 -69 -100 -187q30 -59 100 -181l-5 -11l-116 -5l-8 5q-23 46 -70 126l-33 58v10q60 106 101 185zM325 470l7 5l125 5l5 -8q-18 -34 -63 -115q-29 -52 -39 -74q3 -5 7.5 -14t6.5 -14q9 -19 24.5 -46.5t34 -60.5t25.5 -46l-4 -10l-116 -5l-8 4
q-32 63 -103 187v11q54 95 98 181z" />
    <glyph glyph-name="logicalnot" unicode="&#xac;" horiz-adv-x="667" 
d="M564 0v242h-564v103h564h103v-345h-103z" />
    <glyph glyph-name="registered" unicode="&#xae;" horiz-adv-x="833" 
d="M258 583h155q79 -2 106 -11q38 -13 57.5 -43.5t19.5 -64.5q0 -75 -86 -107q17 -9 25.5 -15.5t17.5 -25t14 -48.5q16 -100 37 -138h-109q-14 29 -24 98q-9 64 -23.5 80.5t-71.5 17.5h-23v-196h-95v453zM353 510v-108h57q16 0 23.5 0.5t23 3t23.5 8t14.5 17t6.5 27.5
q0 34 -28 46q-15 6 -77 6h-43zM773 351q-1 -148 -104 -251t-253 -103q-144 0 -249.5 101t-105.5 255q0 152 104.5 254t250.5 102q153 0 255.5 -105t101.5 -253zM741 352q1 134 -92.5 229.5t-230.5 95.5q-136 0 -230.5 -95t-94.5 -229q0 -136 94.5 -230t229.5 -94
q136 0 229.5 94t94.5 229z" />
    <glyph glyph-name="macron" unicode="&#xaf;" horiz-adv-x="292" 
d="M318 715l5 -6q-2 -24 -7 -87l-6 -7q-53 1 -225 1q-68 0 -111 -1l-5 6q4 42 7 87l6 6q70 -1 209 -1q59 0 127 2z" />
    <glyph glyph-name="macron" unicode="&#x2c9;" horiz-adv-x="292" 
d="M318 715l5 -6q-2 -24 -7 -87l-6 -7q-53 1 -225 1q-68 0 -111 -1l-5 6q4 42 7 87l6 6q70 -1 209 -1q59 0 127 2z" />
    <glyph glyph-name="degree" unicode="&#xb0;" horiz-adv-x="354" 
d="M5 583q0 71 50.5 121.5t121.5 50.5t121.5 -50.5t50.5 -121.5t-50.5 -121.5t-121.5 -50.5t-121.5 50.5t-50.5 121.5zM106 583q0 -29 21 -50t50 -21t50 21t21 50t-21 50t-50 21t-50 -21t-21 -50z" />
    <glyph glyph-name="plusminus" unicode="&#xb1;" horiz-adv-x="667" 
d="M386 374v-226h-103v226h-242v103h242v225h103v-225h239v-103h-239zM625 103v-103h-584v103h584z" />
    <glyph glyph-name="twosuperior" unicode="&#xb2;" horiz-adv-x="396" 
d="M351 330l5 -7q-2 -31 -3 -80l-6 -8q-23 0 -163 -0.5t-167 -0.5l-5 12q19 21 66 75q78 90 108 132t30 74q0 26 -19 46.5t-58 20.5q-55 0 -106 -41l-10 6q3 52 4 88l5 7q73 32 136 32q81 0 126 -41.5t45 -102.5q0 -53 -42 -108q-17 -23 -96 -108q94 1 150 4z" />
    <glyph glyph-name="threesuperior" unicode="&#xb3;" horiz-adv-x="396" 
d="M330 678l5 -9q-13 -25 -49.5 -87.5t-41.5 -69.5q57 -9 82.5 -45t25.5 -81q0 -73 -56 -118q-53 -41 -142 -41q-68 0 -119 24l-4 6q1 22 2.5 43t2.5 37l9 5q51 -32 98 -32q42 0 64 19.5t22 48.5q0 31 -23 49.5t-62 18.5q-19 0 -42 -7l-9 11q56 82 85 139q-87 -1 -143 -3
l-5 7q2 25 3 77l6 6q45 -1 148.5 0t142.5 2z" />
    <glyph glyph-name="acute" unicode="&#xb4;" horiz-adv-x="292" 
d="M256 772l3 -7q-76 -117 -108 -169l-7 -4h-108l-4 6q37 84 61 167l5 5z" />
    <glyph glyph-name="mu" unicode="&#xb5;" 
d="M224 536l8 -9q0 -53 -2 -157q0 -34 -0.5 -57t-1 -32.5t-0.5 -15.5q0 -25 0.5 -37.5t2.5 -33t6.5 -31.5t12.5 -23t21 -17t31 -5q21 0 36.5 7.5t22.5 17t11 25t4.5 24.5t0.5 23q0 190 -7 306l6 7q83 3 163 8l7 -9q-3 -246 -3 -248q0 -169 7 -272l-6 -7q-91 0 -160 -3l-7 6
l1 38q-25 -41 -77 -41q-51 0 -73 41l2 -90q1 -73 6 -193l-6 -6q-89 1 -166 -2l-6 5q6 154 4 408v145q-2 159 -7 213l6 7q80 2 163 8z" />
    <glyph glyph-name="mu" unicode="&#x3bc;" 
d="M224 536l8 -9q0 -53 -2 -157q0 -34 -0.5 -57t-1 -32.5t-0.5 -15.5q0 -25 0.5 -37.5t2.5 -33t6.5 -31.5t12.5 -23t21 -17t31 -5q21 0 36.5 7.5t22.5 17t11 25t4.5 24.5t0.5 23q0 190 -7 306l6 7q83 3 163 8l7 -9q-3 -246 -3 -248q0 -169 7 -272l-6 -7q-91 0 -160 -3l-7 6
l1 38q-25 -41 -77 -41q-51 0 -73 41l2 -90q1 -73 6 -193l-6 -6q-89 1 -166 -2l-6 5q6 154 4 408v145q-2 159 -7 213l6 7q80 2 163 8z" />
    <glyph glyph-name="paragraph" unicode="&#xb6;" horiz-adv-x="667" 
d="M309 706h240v-66h-35v-807h-71v807h-131v-807h-71v473q-25 6 -38.5 10.5t-35 17.5t-38.5 33q-44 51 -44 132t45 134q26 33 63.5 50t59 19.5t56.5 3.5z" />
    <glyph glyph-name="periodcentered" unicode="&#xb7;" horiz-adv-x="250" 
d="M204 361l5 -6l2 -141l-5 -5l-160 -5l-5 7l-2 140l5 7z" />
    <glyph glyph-name="periodcentered" unicode="&#x2219;" horiz-adv-x="250" 
d="M204 361l5 -6l2 -141l-5 -5l-160 -5l-5 7l-2 140l5 7z" />
    <glyph glyph-name="cedilla" unicode="&#xb8;" horiz-adv-x="292" 
d="M234 -35l3 -6q-24 -70 -43 -139l-6 -5h-130l-3 5l66 141l5 4h108z" />
    <glyph glyph-name="onesuperior" unicode="&#xb9;" horiz-adv-x="396" 
d="M263 242l-7 -6q-59 0 -110 -2l-5 6q6 174 4 352q-39 -4 -57 -6l-6 6q1 16 2 34t2 34l6 6q66 8 163 21l7 -5q-4 -84 -4 -252q0 -115 5 -188z" />
    <glyph glyph-name="ordmasculine" unicode="&#xba;" horiz-adv-x="396" 
d="M372 531q2 -181 -175 -181q-69 0 -108 25q-66 43 -66 153q0 184 180 184q169 0 169 -181zM256 533q0 107 -57 107q-20 0 -33.5 -10t-18 -30t-6 -33.5t-1.5 -34.5q0 -109 58 -109t58 110z" />
    <glyph glyph-name="guillemotright" unicode="&#xbb;" horiz-adv-x="521" 
d="M389 96l-7 -6l-119 -3l-5 9q62 107 99 187q-48 96 -99 181l5 11l116 5l7 -5q39 -73 43 -80q51 -84 61 -104v-10q-75 -132 -101 -185zM196 97l-7 -5l-125 -5l-5 9q70 120 101 187q-16 37 -97 182l4 10l116 5l7 -4q27 -52 104 -187v-11q-66 -116 -98 -181z" />
    <glyph glyph-name="onequarter" unicode="&#xbc;" horiz-adv-x="917" 
d="M884 99l-6 -6h-39q0 -16 0.5 -43.5t1.5 -42.5l-6 -6q-56 0 -102 -2l-6 6q1 40 4 89l-183 -1l-6 7q2 48 2 60l11 20q107 199 133 255l8 6q73 0 139 2l7 -6q-5 -157 -3 -262q13 0 24.5 0.5t19.5 0.5l5 -6q-1 -17 -2 -35.5t-2 -35.5zM648 175l83 1l2 104q0 4 1 37l2 33
q-3 -5 -11 -21.5t-18.5 -37t-12.5 -25.5zM263 242l-7 -6q-59 0 -110 -2l-5 6q6 174 4 352q-39 -4 -57 -6l-6 6q1 15 2 33.5t2 34.5l6 6q66 8 163 21l7 -5q-4 -82 -4 -252q0 -115 5 -188zM357 7l-7 -7q-48 0 -100 -1l-6 8q71 152 142 321q94 223 140 342l8 6q77 1 99 2l4 -9
q-39 -82 -156 -357q-24 -59 -46.5 -113.5t-44.5 -109t-33 -82.5z" />
    <glyph glyph-name="onehalf" unicode="&#xbd;" horiz-adv-x="917" 
d="M263 242l-7 -6q-59 0 -110 -2l-5 6q6 174 4 352q-11 -1 -28.5 -3t-28.5 -3l-6 6q1 16 2 34t2 34l6 6q66 8 163 21l7 -6q-4 -82 -4 -251q0 -115 5 -188zM872 95l5 -7q-2 -31 -3 -80l-6 -8q-23 0 -163 -0.5t-167 -0.5l-5 12q19 21 66 75q55 63 78 91t41.5 59.5t18.5 54.5
q0 26 -19 46.5t-58 20.5q-55 0 -106 -41l-10 6q3 52 4 88l5 7q70 32 136 32q81 0 126 -41.5t45 -102.5q0 -51 -42 -108q-18 -22 -96 -107q94 1 150 4zM328 7l-7 -7q-48 0 -100 -1l-6 8q69 149 142 321q111 266 140 342l8 6q77 1 99 2l5 -9q-42 -86 -157 -357
q-78 -188 -124 -305z" />
    <glyph glyph-name="threequarters" unicode="&#xbe;" horiz-adv-x="917" 
d="M330 678l5 -9q-13 -25 -49.5 -87.5t-41.5 -69.5q57 -9 82.5 -45t25.5 -81q0 -73 -56 -118q-53 -41 -142 -41q-68 0 -119 24l-4 6q1 22 2.5 43t2.5 37l9 5q51 -32 98 -32q42 0 64 19.5t22 48.5q0 31 -23 49.5t-62 18.5q-19 0 -42 -7l-9 11q56 82 85 139q-87 -1 -143 -3
l-5 7q2 25 3 77l6 6q45 -1 148.5 0t142.5 2zM388 7l-7 -7q-49 0 -101 -1l-6 8q71 152 142 321q111 266 140 342l8 6q77 1 99 2l4 -9q-39 -82 -156 -357q-55 -133 -123 -305zM884 99l-6 -6h-39q0 -16 0.5 -43.5t1.5 -42.5l-6 -6q-56 0 -102 -2l-6 6q1 40 4 89l-183 -1l-6 7
q2 48 2 60l11 20q111 206 133 255l8 6q73 0 139 2l7 -6q-5 -157 -3 -262q13 0 24.5 0.5t19.5 0.5l5 -6q-1 -17 -2 -35.5t-2 -35.5zM649 175l82 1l2 104q0 4 1 37l2 33q-3 -5 -11 -21.5t-18.5 -37t-12.5 -25.5z" />
    <glyph glyph-name="questiondown" unicode="&#xbf;" horiz-adv-x="458" 
d="M180 615l-5 5l-2 141l5 6l160 4l5 -6l3 -140l-5 -7zM178 524l6 8q86 1 143 5l5 -7q-3 -34 -12 -55.5t-36 -60.5l-35 -50q-51 -78 -51 -136q0 -57 32 -82t71 -25q64 0 128 48l9 -6l-5 -126l-6 -8q-101 -32 -169 -32q-73 0 -119 21q-58 27 -83.5 77t-25.5 100q0 37 12 74.5
t23 56.5t31 50l36 53q25 36 31.5 49.5t14.5 45.5z" />
    <glyph glyph-name="Agrave" unicode="&#xc0;" horiz-adv-x="667" 
d="M464 709l7 -6q49 -190 192 -695l-5 -8q-78 1 -174 -3l-7 6l-43 185h-216l-49 -182l-7 -6h-156l-4 7q152 436 232 693l7 6q127 0 223 3zM253 309h152l-37 156l-30 130l-35 -117zM351 907l6 -4q18 -69 48 -149l-4 -6l-102 -1l-7 5l-111 148l4 7h166z" />
    <glyph glyph-name="Aacute" unicode="&#xc1;" horiz-adv-x="667" 
d="M464 709l7 -6q49 -190 192 -695l-5 -8q-78 1 -174 -3l-7 6l-43 185h-216l-49 -182l-7 -6h-156l-4 7q152 436 232 693l7 6q127 0 223 3zM253 309h152l-37 156l-30 130l-35 -117zM489 907l2 -6q-54 -69 -115 -150l-6 -4h-101l-4 6q31 74 53 149l5 5h166z" />
    <glyph glyph-name="Acircumflex" unicode="&#xc2;" horiz-adv-x="667" 
d="M464 709l7 -6q49 -190 192 -695l-5 -8q-78 1 -174 -3l-7 6l-43 185h-216l-49 -182l-7 -6h-156l-4 7q152 436 232 693l7 6q127 0 223 3zM253 309h152l-37 156l-30 130l-35 -117zM426 907l5 -5q37 -75 82 -145l-4 -8l-135 -3l-6 6l-42 81q-5 -8 -13.5 -22t-16.5 -27.5
t-18 -30.5l-6 -6h-118l-4 7q48 75 83 147l7 6h186z" />
    <glyph glyph-name="Atilde" unicode="&#xc3;" horiz-adv-x="667" 
d="M464 709l7 -6q49 -190 192 -695l-5 -8q-78 1 -174 -3l-7 6l-43 185h-216l-49 -182l-7 -6h-156l-4 7q152 436 232 693l7 6q127 0 223 3zM253 309h152l-37 156l-30 130l-35 -117zM495 912l7 -3v-112l-4 -8q-50 -39 -94 -39q-20 0 -57 13l-30 11q-49 15 -68 15
q-33 0 -85 -33l-6 2l1 106l4 7q16 12 23.5 17t25.5 11t39 6t53 -10l39 -13q41 -15 65 -15q35 0 87 45z" />
    <glyph glyph-name="Adieresis" unicode="&#xc4;" horiz-adv-x="667" 
d="M464 709l7 -6q49 -190 192 -695l-5 -8q-78 1 -174 -3l-7 6l-43 185h-216l-49 -182l-7 -6h-156l-4 7q152 436 232 693l7 6q127 0 223 3zM253 309h152l-37 156l-30 130l-35 -117zM541 896l6 -6l-2 -129l-5 -6l-138 -3l-6 6v128l5 7zM299 896l5 -6l-2 -127l-6 -7l-140 -2
l-5 6v127l6 7z" />
    <glyph glyph-name="Aring" unicode="&#xc5;" horiz-adv-x="667" 
d="M464 709l7 -6q49 -190 192 -695l-5 -8q-78 1 -174 -3l-7 6l-43 185h-216l-49 -182l-7 -6h-156l-4 7q152 436 232 693l7 6q127 0 223 3zM253 309h152l-37 156l-30 130l-35 -117zM477 853q2 -57 -34.5 -90t-97.5 -33q-58 0 -90.5 32.5t-32.5 81.5t33 86t97 37q65 0 94 -34
t31 -80zM387 853q-2 55 -38 55q-15 0 -27.5 -13.5t-12.5 -46.5q0 -30 12 -45.5t28 -15.5q17 0 28 17t10 49z" />
    <glyph glyph-name="AE" unicode="&#xc6;" horiz-adv-x="917" 
d="M879 129l-7 -123l-7 -6h-430l-6 5q4 77 5 190h-186q-29 -82 -62 -189l-7 -6l-173 -3l-4 8q72 174 171 421q62 152 108 279l8 4q57 0 195 -2q37 0 99 -0.5t82 -0.5q84 0 201 3l5 -6l-7 -122l-6 -6l-252 2l-2 -156q126 0 235 5l6 -6l-7 -114l-7 -6q-113 2 -228 1l2 -174
q142 2 268 8zM292 317h143q5 151 4 260h-50z" />
    <glyph glyph-name="Ccedilla" unicode="&#xc7;" 
d="M430 -36l3 -6q-23 -66 -44 -138l-6 -6h-130l-3 6q48 100 66 140l6 5q54 -1 108 -1zM579 179l7 -5q-3 -45 -7 -148l-5 -7q-84 -34 -173 -34q-162 0 -260.5 97t-98.5 263q0 59 12 112.5t39.5 102t67 84t98.5 56.5t131 21q97 0 186 -36l5 -6q-4 -46 -10 -137l-8 -3
q-66 49 -141 49q-54 0 -93.5 -21.5t-60.5 -58t-30.5 -75.5t-9.5 -82q0 -107 54 -168t140 -61q88 0 157 57z" />
    <glyph glyph-name="Egrave" unicode="&#xc8;" horiz-adv-x="562" 
d="M519 135l6 -7l-7 -122l-8 -6h-440l-5 4q5 175 5 294q0 273 -8 402l6 6h439l5 -4l-7 -116l-5 -6q-121 3 -257 3v-159l242 4l5 -6l-6 -113l-7 -6h-234l2 -175q136 0 274 7zM299 907l6 -4q18 -69 48 -149l-4 -6l-102 -1l-7 5l-111 148l4 7h166z" />
    <glyph glyph-name="Eacute" unicode="&#xc9;" horiz-adv-x="562" 
d="M519 135l6 -7l-7 -122l-8 -6h-440l-5 4q5 175 5 294q0 273 -8 402l6 6h439l5 -4l-7 -116l-5 -6q-121 3 -257 3v-159l242 4l5 -6l-6 -113l-7 -6h-234l2 -175q136 0 274 7zM437 907l2 -6q-54 -69 -115 -150l-6 -4h-101l-4 6q31 74 53 149l5 5h166z" />
    <glyph glyph-name="Ecircumflex" unicode="&#xca;" horiz-adv-x="562" 
d="M519 135l6 -7l-7 -122l-8 -6h-440l-5 4q5 175 5 294q0 273 -8 402l6 6h439l5 -4l-7 -116l-5 -6q-121 3 -257 3v-159l242 4l5 -6l-6 -113l-7 -6h-234l2 -175q136 0 274 7zM374 907l5 -5q37 -75 82 -145l-4 -8l-135 -3l-6 6l-42 81q-5 -8 -13.5 -22t-16.5 -27.5t-18 -30.5
l-6 -6h-118l-4 7q48 75 83 147l7 6h186z" />
    <glyph glyph-name="Edieresis" unicode="&#xcb;" horiz-adv-x="562" 
d="M519 135l6 -7l-7 -122l-8 -6h-440l-5 4q5 175 5 294q0 273 -8 402l6 6h439l5 -4l-7 -116l-5 -6q-121 3 -257 3v-159l242 4l5 -6l-6 -113l-7 -6h-234l2 -175q136 0 274 7zM476 896l6 -6l-2 -129l-5 -6l-138 -3l-6 6v128l5 7zM234 896l5 -6l-2 -127l-6 -7l-140 -2l-5 6v127
l6 7z" />
    <glyph glyph-name="Igrave" unicode="&#xcc;" horiz-adv-x="313" 
d="M245 709l5 -6q-5 -230 -5 -414q0 -154 7 -283l-6 -6q-103 0 -178 -3l-5 6q6 156 6 283q0 252 -9 414l4 6q90 -1 181 3zM174 907l6 -4q18 -69 48 -149l-4 -6l-102 -1l-7 5l-111 148l4 7h166z" />
    <glyph glyph-name="Iacute" unicode="&#xcd;" horiz-adv-x="313" 
d="M245 709l5 -6q-5 -230 -5 -414q0 -154 7 -283l-6 -6q-103 0 -178 -3l-5 6q6 156 6 283q0 252 -9 414l4 6q90 -1 181 3zM312 907l2 -6q-54 -69 -115 -150l-6 -4h-101l-4 6q31 74 53 149l5 5h166z" />
    <glyph glyph-name="Icircumflex" unicode="&#xce;" horiz-adv-x="313" 
d="M245 709l5 -6q-5 -230 -5 -414q0 -154 7 -283l-6 -6q-103 0 -178 -3l-5 6q6 156 6 283q0 252 -9 414l4 6q90 -1 181 3zM249 907l5 -5q37 -75 82 -145l-4 -8l-135 -3l-6 6l-42 81q-5 -8 -13.5 -22t-16.5 -27.5t-18 -30.5l-6 -6h-118l-4 7q48 75 83 147l7 6h186z" />
    <glyph glyph-name="Idieresis" unicode="&#xcf;" horiz-adv-x="313" 
d="M245 709l5 -6q-5 -230 -5 -414q0 -154 7 -283l-6 -6q-103 0 -178 -3l-5 6q6 156 6 283q0 252 -9 414l4 6q90 -1 181 3zM351 896l6 -6l-2 -129l-5 -6l-138 -3l-6 6v128l5 7zM109 896l5 -6l-2 -127l-6 -7l-140 -2l-5 6v127l6 7z" />
    <glyph glyph-name="Eth" unicode="&#xd0;" horiz-adv-x="708" 
d="M189 -2l-118 -1l-6 6q3 132 3 318q-39 -1 -61 -3l-7 5q1 38 0 85l7 6q32 -1 60 0q0 169 -7 286l6 6l105 2q99 3 152 3q123 0 177 -23q83 -35 129 -122q37 -72 37 -194q0 -99 -24 -167q-60 -170 -248 -199q-50 -8 -205 -8zM384 324h-142q0 -65 2 -195q45 0 69 1.5t57 14
t56 36.5q56 60 56 188q0 113 -45 165q-42 47 -128 47q-22 0 -68 -2q0 -26 0.5 -65.5t0.5 -46.5v-50q82 1 146 4l6 -6q-3 -35 -4 -84z" />
    <glyph glyph-name="Ntilde" unicode="&#xd1;" horiz-adv-x="729" 
d="M661 709l6 -6q-2 -224 -2 -335q0 -73 2 -363l-5 -5q-71 0 -132 -3l-7 5l-89 130l-100 147q-71 103 -131 203l6 -134l3 -123l10 -219l-5 -6q-79 0 -146 -3l-5 6q3 291 3 293q0 156 -8 404l5 6q83 -1 165 3l7 -5q15 -24 115 -176l91 -133q53 -79 85 -133l-4 165l-4 138
l-7 135l5 6q59 -1 142 3zM527 912l7 -3v-112l-4 -8q-50 -39 -94 -39q-20 0 -57 13l-30 11q-49 15 -68 15q-33 0 -85 -33l-6 2l1 106l4 7q16 12 23.5 17t25.5 11t39 6t53 -10l39 -13q41 -15 65 -15q35 0 87 45z" />
    <glyph glyph-name="Ograve" unicode="&#xd2;" horiz-adv-x="750" 
d="M633 614q75 -93 75 -259q0 -82 -26.5 -165t-92.5 -138q-81 -67 -214 -67q-144 0 -231 81q-102 94 -102 283q0 51 9 102q30 158 152 228q73 42 179 42q114 0 191 -51q34 -22 60 -56zM475 550q-38 46 -97 46q-39 0 -73 -20q-76 -49 -76 -212q0 -252 148 -252q151 0 144 258
q-2 58 -11 99q-11 53 -35 81zM393 907l6 -4q18 -69 48 -149l-4 -6l-102 -1l-7 5l-111 148l4 7h166z" />
    <glyph glyph-name="Oacute" unicode="&#xd3;" horiz-adv-x="750" 
d="M633 614q75 -93 75 -259q0 -82 -26.5 -165t-92.5 -138q-81 -67 -214 -67q-144 0 -231 81q-102 94 -102 283q0 51 9 102q30 158 152 228q73 42 179 42q114 0 191 -51q34 -22 60 -56zM475 550q-38 46 -97 46q-39 0 -73 -20q-76 -49 -76 -212q0 -252 148 -252q151 0 144 258
q-2 58 -11 99q-11 53 -35 81zM531 907l2 -6q-54 -69 -115 -150l-6 -4h-101l-4 6q31 74 53 149l5 5h166z" />
    <glyph glyph-name="Ocircumflex" unicode="&#xd4;" horiz-adv-x="750" 
d="M633 614q75 -93 75 -259q0 -82 -26.5 -165t-92.5 -138q-81 -67 -214 -67q-144 0 -231 81q-102 94 -102 283q0 51 9 102q30 158 152 228q73 42 179 42q114 0 191 -51q34 -22 60 -56zM475 550q-38 46 -97 46q-39 0 -73 -20q-76 -49 -76 -212q0 -252 148 -252q151 0 144 258
q-2 58 -11 99q-11 53 -35 81zM468 907l5 -5q37 -75 82 -145l-4 -8l-135 -3l-6 6l-42 81q-5 -8 -13.5 -22t-16.5 -27.5t-18 -30.5l-6 -6h-118l-4 7q48 75 83 147l7 6h186z" />
    <glyph glyph-name="Otilde" unicode="&#xd5;" horiz-adv-x="750" 
d="M633 614q75 -93 75 -259q0 -82 -26.5 -165t-92.5 -138q-81 -67 -214 -67q-144 0 -231 81q-102 94 -102 283q0 51 9 102q30 158 152 228q73 42 179 42q114 0 191 -51q34 -22 60 -56zM475 550q-38 46 -97 46q-39 0 -73 -20q-76 -49 -76 -212q0 -252 148 -252q151 0 144 258
q-2 58 -11 99q-11 53 -35 81zM537 912l7 -3v-112l-4 -8q-50 -39 -94 -39q-20 0 -57 13l-30 11q-49 15 -68 15q-33 0 -85 -33l-6 2l1 106l4 7q16 12 23.5 17t25.5 11t39 6t53 -10l39 -13q41 -15 65 -15q35 0 87 45z" />
    <glyph glyph-name="Odieresis" unicode="&#xd6;" horiz-adv-x="750" 
d="M633 614q75 -93 75 -259q0 -82 -26.5 -165t-92.5 -138q-81 -67 -214 -67q-144 0 -231 81q-102 94 -102 283q0 51 9 102q30 158 152 228q73 42 179 42q114 0 191 -51q34 -22 60 -56zM475 550q-38 46 -97 46q-39 0 -73 -20q-76 -49 -76 -212q0 -252 148 -252q151 0 144 258
q-2 58 -11 99q-11 53 -35 81zM574 896l6 -6l-2 -129l-5 -6l-138 -3l-6 6v128l5 7zM332 896l5 -6l-2 -127l-6 -7l-140 -2l-5 6v127l6 7z" />
    <glyph glyph-name="multiply" unicode="&#xd7;" horiz-adv-x="667" 
d="M599 100l-74 -74l-192 192l-191 -192l-74 74l191 192l-191 192l74 74l191 -192l192 192l74 -74l-192 -192z" />
    <glyph glyph-name="Oslash" unicode="&#xd8;" horiz-adv-x="750" 
d="M733 680v-7q-6 -6 -40.5 -39.5t-40.5 -39.5q55 -97 55 -220q0 -20 -2 -58q-12 -132 -70 -212q-87 -120 -257 -120q-105 0 -176 38q-24 13 -59 43q-27 -29 -73 -81h-8l-61 59v8q25 26 87 85q-14 24 -21.5 42t-16.5 64t-9 104q0 185 97 285q89 90 238 90q60 0 108 -13
t66 -24t41 -28q29 29 73 81l7 1zM517 455l-265 -273q12 -19 21.5 -30t37.5 -26t64 -15q122 0 143 165q5 47 5 85q0 28 -6 94zM228 278l260 268q-40 57 -113 57q-54 0 -91 -33q-61 -56 -61 -210q0 -30 5 -82z" />
    <glyph glyph-name="Ugrave" unicode="&#xd9;" horiz-adv-x="688" 
d="M630 709l5 -6l-3 -297v-102q-2 -106 -12 -154t-47 -87q-74 -78 -220 -78q-176 0 -249 104q-25 34 -33.5 78t-10.5 132v74q-1 192 -5 327l6 6q86 -1 176 3l5 -6q-3 -148 -3 -257q0 -106 2 -159q3 -89 23 -124q33 -53 102 -53q56 0 88 36q19 23 24.5 61.5t5.5 123.5
q0 123 -10 369l6 6q72 -1 150 3zM362 907l6 -4q18 -69 48 -149l-4 -6l-102 -1l-7 5l-111 148l4 7h166z" />
    <glyph glyph-name="Uacute" unicode="&#xda;" horiz-adv-x="688" 
d="M630 709l5 -6l-3 -297v-102q-2 -106 -12 -154t-47 -87q-74 -78 -220 -78q-176 0 -249 104q-25 34 -33.5 78t-10.5 132v74q-1 192 -5 327l6 6q86 -1 176 3l5 -6q-3 -148 -3 -257q0 -106 2 -159q3 -89 23 -124q33 -53 102 -53q56 0 88 36q19 23 24.5 61.5t5.5 123.5
q0 123 -10 369l6 6q72 -1 150 3zM500 907l2 -6q-54 -69 -115 -150l-6 -4h-101l-4 6q31 74 53 149l5 5h166z" />
    <glyph glyph-name="Ucircumflex" unicode="&#xdb;" horiz-adv-x="688" 
d="M630 709l5 -6l-3 -297v-102q-2 -106 -12 -154t-47 -87q-74 -78 -220 -78q-176 0 -249 104q-25 34 -33.5 78t-10.5 132v74q-1 192 -5 327l6 6q86 -1 176 3l5 -6q-3 -148 -3 -257q0 -106 2 -159q3 -89 23 -124q33 -53 102 -53q56 0 88 36q19 23 24.5 61.5t5.5 123.5
q0 123 -10 369l6 6q72 -1 150 3zM437 907l5 -5q37 -75 82 -145l-4 -8l-135 -3l-6 6l-42 81q-5 -8 -13.5 -22t-16.5 -27.5t-18 -30.5l-6 -6h-118l-4 7q48 75 83 147l7 6h186z" />
    <glyph glyph-name="Udieresis" unicode="&#xdc;" horiz-adv-x="688" 
d="M630 709l5 -6l-3 -297v-102q-2 -106 -12 -154t-47 -87q-74 -78 -220 -78q-176 0 -249 104q-25 34 -33.5 78t-10.5 132v74q-1 192 -5 327l6 6q86 -1 176 3l5 -6q-3 -148 -3 -257q0 -106 2 -159q3 -89 23 -124q33 -53 102 -53q56 0 88 36q19 23 24.5 61.5t5.5 123.5
q0 123 -10 369l6 6q72 -1 150 3zM551 896l6 -6l-2 -129l-5 -6l-138 -3l-6 6v128l5 7zM309 896l5 -6l-2 -127l-6 -7l-140 -2l-5 6v127l6 7z" />
    <glyph glyph-name="Yacute" unicode="&#xdd;" 
d="M401 6l-6 -6q-93 0 -177 -3l-5 6q7 138 7 261v32q-15 26 -43 78q-11 20 -91.5 158t-96.5 166l3 8q89 1 190 7l7 -5q45 -96 62 -130q60 -114 72 -138q68 132 127 260l6 6q81 0 156 3l4 -7l-221 -402q0 -138 6 -294zM458 907l2 -6q-54 -69 -115 -150l-6 -4h-101l-4 6
q31 74 53 149l5 5h166z" />
    <glyph glyph-name="Thorn" unicode="&#xde;" 
d="M243 610l39 1q55 0 76.5 -0.5t54 -5t57.5 -14.5q126 -50 126 -201q0 -125 -85 -192q-35 -27 -86.5 -40t-88 -14.5t-93.5 -0.5q3 -135 3 -137l-5 -6q-78 1 -173 -3l-5 6q5 128 5 284q0 271 -9 413l5 6q99 0 176 3l4 -5q0 -34 -1 -94zM241 266h20q23 0 37.5 1t39.5 7
t40 17.5t27 35t12 57.5q0 39 -15.5 63t-40.5 31.5t-56.5 10t-63.5 -0.5q0 -8 -0.5 -56.5t-0.5 -57.5q0 -7 0.5 -53t0.5 -55z" />
    <glyph glyph-name="germandbls" unicode="&#xdf;" horiz-adv-x="625" 
d="M237 6l-7 -6q-97 0 -165 -3l-6 6q3 166 3 375l-2 117q0 128 21 177q28 62 94 90.5t148 28.5q105 0 157 -39q64 -47 64 -129q0 -25 -8 -49.5t-16.5 -39t-26.5 -41.5l-17 -24q-21 -25 -21 -40q0 -20 43 -64l29 -29q77 -80 77 -160q0 -74 -60.5 -128.5t-161.5 -54.5
q-34 0 -85 11l-8 7v104l10 6q30 -16 52 -16q37 0 58.5 21t21.5 46q0 35 -62 97l-26 28q-51 53 -51 85q0 26 30 65l22 27q16 22 24 34.5t15 34t7 45.5q0 49 -22 72.5t-53 23.5t-49 -19.5t-25 -41.5q-10 -32 -10 -104q0 -255 6 -513z" />
    <glyph glyph-name="agrave" unicode="&#xe0;" horiz-adv-x="562" 
d="M505 298l-1 -74q0 -119 7 -217l-5 -7q-64 1 -159 -3l-6 7v37q-65 -53 -139 -53q-75 0 -125 48.5t-50 127.5q0 90 75 137q43 26 91 38.5t145 25.5q0 30 -13 43q-19 19 -65 19q-67 0 -167 -40l-8 4l5 109l6 8q111 33 196 33q143 0 188 -72q18 -29 22 -62t3 -109zM340 139
v121q-34 -5 -53 -8.5t-44.5 -12.5t-37.5 -25.5t-12 -39.5q0 -30 18.5 -45.5t47.5 -15.5q35 0 81 26zM288 771l6 -4q24 -85 59 -166l-5 -7h-108l-7 4q-60 101 -103 165l4 8h154z" />
    <glyph glyph-name="aacute" unicode="&#xe1;" horiz-adv-x="562" 
d="M505 298l-1 -74q0 -119 7 -217l-5 -7q-64 1 -159 -3l-6 7v37q-65 -53 -139 -53q-75 0 -125 48.5t-50 127.5q0 90 75 137q43 26 91 38.5t145 25.5q0 30 -13 43q-19 19 -65 19q-67 0 -167 -40l-8 4l5 109l6 8q111 33 196 33q143 0 188 -72q18 -29 22 -62t3 -109zM340 139
v121q-34 -5 -53 -8.5t-44.5 -12.5t-37.5 -25.5t-12 -39.5q0 -30 18.5 -45.5t47.5 -15.5q35 0 81 26zM434 772l3 -7q-76 -117 -108 -169l-7 -4h-108l-4 6q37 84 61 167l5 5z" />
    <glyph glyph-name="acircumflex" unicode="&#xe2;" horiz-adv-x="562" 
d="M505 298l-1 -74q0 -119 7 -217l-5 -7q-64 1 -159 -3l-6 7v37q-65 -53 -139 -53q-75 0 -125 48.5t-50 127.5q0 90 75 137q43 26 91 38.5t145 25.5q0 30 -13 43q-19 19 -65 19q-67 0 -167 -40l-8 4l5 109l6 8q111 33 196 33q143 0 188 -72q18 -29 22 -62t3 -109zM340 139
v121q-34 -5 -53 -8.5t-44.5 -12.5t-37.5 -25.5t-12 -39.5q0 -30 18.5 -45.5t47.5 -15.5q35 0 81 26zM381 772l6 -5q47 -106 77 -165l-3 -6l-135 -4l-6 5l-42 105l-44 -103l-6 -5h-114l-3 6q44 83 82 167l6 5h182z" />
    <glyph glyph-name="atilde" unicode="&#xe3;" horiz-adv-x="562" 
d="M505 298l-1 -74q0 -119 7 -217l-5 -7q-64 1 -159 -3l-6 7v37q-65 -53 -139 -53q-75 0 -125 48.5t-50 127.5q0 90 75 137q43 26 91 38.5t145 25.5q0 30 -13 43q-19 19 -65 19q-67 0 -167 -40l-8 4l5 109l6 8q111 33 196 33q143 0 188 -72q18 -29 22 -62t3 -109zM340 139
v121q-34 -5 -53 -8.5t-44.5 -12.5t-37.5 -25.5t-12 -39.5q0 -30 18.5 -45.5t47.5 -15.5q35 0 81 26zM443 758l7 -3v-112l-4 -8q-50 -39 -94 -39q-20 0 -57 13l-30 11q-46 16 -68 16q-35 0 -85 -34l-6 3l1 105l4 8q16 12 23.5 17t25.5 11t39 6t53 -10l39 -14q47 -15 65 -15
q35 0 87 45z" />
    <glyph glyph-name="adieresis" unicode="&#xe4;" horiz-adv-x="562" 
d="M505 298l-1 -74q0 -119 7 -217l-5 -7q-64 1 -159 -3l-6 7v37q-65 -53 -139 -53q-75 0 -125 48.5t-50 127.5q0 90 75 137q43 26 91 38.5t145 25.5q0 30 -13 43q-19 19 -65 19q-67 0 -167 -40l-8 4l5 109l6 8q111 33 196 33q143 0 188 -72q18 -29 22 -62t3 -109zM340 139
v121q-34 -5 -53 -8.5t-44.5 -12.5t-37.5 -25.5t-12 -39.5q0 -30 18.5 -45.5t47.5 -15.5q35 0 81 26zM465 744l5 -5v-138l-5 -6l-136 -8l-6 6l-2 137l5 6zM243 743l5 -6v-135l-6 -6l-137 -8l-5 6l-3 136l5 6z" />
    <glyph glyph-name="aring" unicode="&#xe5;" horiz-adv-x="562" 
d="M505 298l-1 -74q0 -119 7 -217l-5 -7q-64 1 -159 -3l-6 7v37q-65 -53 -139 -53q-75 0 -125 48.5t-50 127.5q0 90 75 137q43 26 91 38.5t145 25.5q0 30 -13 43q-19 19 -65 19q-67 0 -167 -40l-8 4l5 109l6 8q111 33 196 33q143 0 188 -72q18 -29 22 -62t3 -109zM340 139
v121q-34 -5 -53 -8.5t-44.5 -12.5t-37.5 -25.5t-12 -39.5q0 -30 18.5 -45.5t47.5 -15.5q35 0 81 26zM419 698q2 -57 -34.5 -90t-97.5 -33q-58 0 -90.5 32.5t-32.5 81.5t33 86t97 37q65 0 94 -34t31 -80zM329 698q-2 55 -38 55q-15 0 -27.5 -13.5t-12.5 -46.5q0 -30 12 -45.5
t28 -15.5q17 0 28 17t10 49z" />
    <glyph glyph-name="ae" unicode="&#xe6;" horiz-adv-x="854" 
d="M783 24l-6 -7q-54 -14 -81 -19q-48 -9 -97 -9q-90 0 -148 32q-23 13 -48 38q-24 -21 -41 -32.5t-56 -25t-84 -13.5q-56 0 -96.5 18.5t-59.5 47t-27.5 54.5t-8.5 50q0 77 56 123q28 23 78.5 35.5t83.5 14t85 1.5q0 25 -2 39t-9.5 31t-27 25t-50.5 8q-21 0 -46 -5
q-55 -9 -117 -37l-7 4l6 102l6 6q104 37 192 37q40 0 68.5 -8t42.5 -17.5t39 -31.5q25 19 40.5 28.5t48.5 19t74 9.5q77 0 132 -35q26 -16 44 -40t28 -48t15.5 -58t7 -59.5t2.5 -64.5l-7 -7h-320q4 -25 7.5 -38t15.5 -33t32 -33q35 -22 89 -22q31 0 61 6.5t44 12t45 19.5
l7 -5l-6 -59zM491 331l175 2q-5 49 -17 66q-21 35 -69 35q-18 0 -33 -7q-49 -22 -56 -96zM349 151q-13 38 -15 79q-36 0 -51 -1q-97 0 -97 -62q0 -21 17 -38.5t53 -17.5q22 0 40.5 6.5t28 13.5t24.5 20z" />
    <glyph glyph-name="ccedilla" unicode="&#xe7;" horiz-adv-x="479" 
d="M342 -36l3 -6q-23 -66 -44 -138l-6 -6h-48h-46.5h-35.5l-3 6q48 100 66 140l6 5q54 -1 108 -1zM451 144l8 -5q-3 -77 -4 -120l-6 -6q-70 -22 -136 -22q-71 0 -126.5 22.5t-87.5 61.5t-48 85.5t-16 98.5q0 42 9 81t29.5 76t51.5 64.5t79 44t107 16.5q74 0 145 -26l5 -6
q-8 -53 -13 -119l-10 -4q-48 36 -99 36q-66 0 -97.5 -46.5t-31.5 -108.5q0 -21 4.5 -43.5t17.5 -50t42.5 -44.5t71.5 -17q54 0 105 32z" />
    <glyph glyph-name="egrave" unicode="&#xe8;" horiz-adv-x="562" 
d="M504 148l7 -3l-7 -113l-6 -8q-35 -14 -51.5 -19.5t-49 -11t-71.5 -5.5q-203 0 -266 147q-24 53 -24 131q0 129 71 202.5t190 73.5q39 0 71 -9q109 -26 146 -150q14 -50 16 -149l-6 -7l-323 -6q8 -42 22 -61q37 -55 125 -55q74 0 156 43zM201 327l167 4q0 45 -15 69
q-21 35 -64 35q-23 0 -40 -11q-41 -26 -48 -97zM288 771l6 -4q24 -85 59 -166l-5 -7h-108l-7 4q-60 101 -103 165l4 8h154z" />
    <glyph glyph-name="eacute" unicode="&#xe9;" horiz-adv-x="562" 
d="M504 148l7 -3l-7 -113l-6 -8q-35 -14 -51.5 -19.5t-49 -11t-71.5 -5.5q-203 0 -266 147q-24 53 -24 131q0 129 71 202.5t190 73.5q39 0 71 -9q109 -26 146 -150q14 -50 16 -149l-6 -7l-323 -6q8 -42 22 -61q37 -55 125 -55q74 0 156 43zM201 327l167 4q0 45 -15 69
q-21 35 -64 35q-23 0 -40 -11q-41 -26 -48 -97zM434 772l3 -7q-76 -117 -108 -169l-7 -4h-108l-4 6q37 84 61 167l5 5z" />
    <glyph glyph-name="ecircumflex" unicode="&#xea;" horiz-adv-x="562" 
d="M504 148l7 -3l-7 -113l-6 -8q-35 -14 -51.5 -19.5t-49 -11t-71.5 -5.5q-203 0 -266 147q-24 53 -24 131q0 129 71 202.5t190 73.5q39 0 71 -9q109 -26 146 -150q14 -50 16 -149l-6 -7l-323 -6q8 -42 22 -61q37 -55 125 -55q74 0 156 43zM201 327l167 4q0 45 -15 69
q-21 35 -64 35q-23 0 -40 -11q-41 -26 -48 -97zM381 772l6 -5q47 -106 77 -165l-3 -6l-135 -4l-6 5l-42 105l-44 -103l-6 -5h-114l-3 6q44 83 82 167l6 5h182z" />
    <glyph glyph-name="edieresis" unicode="&#xeb;" horiz-adv-x="562" 
d="M504 148l7 -3l-7 -113l-6 -8q-35 -14 -51.5 -19.5t-49 -11t-71.5 -5.5q-203 0 -266 147q-24 53 -24 131q0 129 71 202.5t190 73.5q39 0 71 -9q109 -26 146 -150q14 -50 16 -149l-6 -7l-323 -6q8 -42 22 -61q37 -55 125 -55q74 0 156 43zM201 327l167 4q0 45 -15 69
q-21 35 -64 35q-23 0 -40 -11q-41 -26 -48 -97zM460 744l5 -5v-138l-5 -6l-136 -8l-6 6l-2 137l5 6zM238 743l5 -6v-135l-6 -6l-137 -8l-5 6l-3 136l5 6z" />
    <glyph glyph-name="igrave" unicode="&#xec;" horiz-adv-x="292" 
d="M241 7l-7 -7q-78 1 -173 -3l-6 7q6 164 6 252q0 148 -11 253l6 6l172 30l7 -8q-3 -255 -3 -256q0 -135 9 -274zM153 771l6 -4q24 -85 59 -166l-5 -7h-108l-7 4q-60 101 -103 165l4 8h154z" />
    <glyph glyph-name="iacute" unicode="&#xed;" horiz-adv-x="292" 
d="M241 7l-7 -7q-78 1 -173 -3l-6 7q6 164 6 252q0 148 -11 253l6 6l172 30l7 -8q-3 -255 -3 -256q0 -135 9 -274zM299 772l3 -7q-76 -117 -108 -169l-7 -4h-108l-4 6q37 84 61 167l5 5z" />
    <glyph glyph-name="icircumflex" unicode="&#xee;" horiz-adv-x="292" 
d="M241 7l-7 -7q-78 1 -173 -3l-6 7q6 164 6 252q0 148 -11 253l6 6l172 30l7 -8q-3 -255 -3 -256q0 -135 9 -274zM246 772l6 -5q47 -106 77 -165l-3 -6l-135 -4l-6 5l-42 105l-44 -103l-6 -5h-114l-3 6q44 83 82 167l6 5h182z" />
    <glyph glyph-name="idieresis" unicode="&#xef;" horiz-adv-x="292" 
d="M241 7l-7 -7q-78 1 -173 -3l-6 7q6 164 6 252q0 148 -11 253l6 6l172 30l7 -8q-3 -255 -3 -256q0 -135 9 -274zM325 744l5 -5v-138l-5 -6l-136 -8l-6 6l-2 137l5 6zM103 743l5 -6v-135l-6 -6l-137 -8l-5 6l-3 136l5 6z" />
    <glyph glyph-name="eth" unicode="&#xf0;" 
d="M547 667l-6 -9q-30 -5 -68 -13q96 -161 96 -351q0 -174 -100 -251q-70 -54 -177 -54q-117 0 -187 70.5t-70 205.5q0 73 24.5 128t57 81.5t73.5 42.5t62.5 19t36.5 3q36 0 71 -13q-15 48 -38 87q-130 -27 -161 -36l-16 -4l-10 4q-11 28 -30 69l4 7q91 16 163 33
q-39 47 -86 79l3 9l81 12q24 4 70 12l13 -2q44 -41 70 -76q53 12 71 17l13 4l10 -4q12 -30 30 -70zM306 99q44 3 67.5 39t23.5 131q0 174 -91 174q-37 0 -63 -30q-33 -39 -33 -140q0 -86 20 -132t76 -42z" />
    <glyph glyph-name="ntilde" unicode="&#xf1;" 
d="M550 7l-7 -6q-64 0 -163 -3l-6 6q0 17 0.5 51.5t0.5 51.5q0 159 -3 208q-2 19 -4 31t-8 29t-19 26t-32 9q-31 0 -77 -31q1 -195 8 -372l-6 -6q-95 0 -167 -3l-6 6q2 128 2 192q0 161 -14 313l6 7q82 11 169 29l10 -7l-2 -55q33 19 50.5 28.5t49.5 20t60 10.5
q88 0 124 -60q17 -28 21.5 -64.5t5.5 -118.5v-78q3 -142 7 -214zM464 758l7 -3v-112l-4 -8q-50 -39 -94 -39q-20 0 -57 13l-30 11q-46 16 -68 16q-35 0 -85 -34l-6 3l1 105l4 8q16 12 23.5 17t25.5 11t39 6t53 -10l39 -14q47 -15 65 -15q35 0 87 45z" />
    <glyph glyph-name="ograve" unicode="&#xf2;" 
d="M569 266q0 -278 -269 -278q-156 0 -218 93q-47 69 -47 183q0 137 70 207t202 70q73 0 122 -19q140 -55 140 -256zM396 267q0 105 -29 140q-25 31 -64 31q-48 0 -73 -45q-20 -35 -20 -128q0 -112 36 -148q25 -23 56 -23q30 0 49.5 14.5t28.5 42t12.5 54t3.5 62.5zM309 771
l6 -4q24 -85 59 -166l-5 -7h-108l-7 4q-60 101 -103 165l4 8h154z" />
    <glyph glyph-name="oacute" unicode="&#xf3;" 
d="M569 266q0 -278 -269 -278q-156 0 -218 93q-47 69 -47 183q0 137 70 207t202 70q73 0 122 -19q140 -55 140 -256zM396 267q0 105 -29 140q-25 31 -64 31q-48 0 -73 -45q-20 -35 -20 -128q0 -112 36 -148q25 -23 56 -23q30 0 49.5 14.5t28.5 42t12.5 54t3.5 62.5zM455 772
l3 -7q-76 -117 -108 -169l-7 -4h-108l-4 6q37 84 61 167l5 5z" />
    <glyph glyph-name="ocircumflex" unicode="&#xf4;" 
d="M569 266q0 -278 -269 -278q-156 0 -218 93q-47 69 -47 183q0 137 70 207t202 70q73 0 122 -19q140 -55 140 -256zM396 267q0 105 -29 140q-25 31 -64 31q-48 0 -73 -45q-20 -35 -20 -128q0 -112 36 -148q25 -23 56 -23q30 0 49.5 14.5t28.5 42t12.5 54t3.5 62.5zM402 772
l6 -5q47 -106 77 -165l-3 -6l-135 -4l-6 5l-42 105l-44 -103l-6 -5h-114l-3 6q44 83 82 167l6 5h182z" />
    <glyph glyph-name="otilde" unicode="&#xf5;" 
d="M569 266q0 -278 -269 -278q-156 0 -218 93q-47 69 -47 183q0 137 70 207t202 70q73 0 122 -19q140 -55 140 -256zM396 267q0 105 -29 140q-25 31 -64 31q-48 0 -73 -45q-20 -35 -20 -128q0 -112 36 -148q25 -23 56 -23q30 0 49.5 14.5t28.5 42t12.5 54t3.5 62.5zM464 758
l7 -3v-112l-4 -8q-50 -39 -94 -39q-20 0 -57 13l-30 11q-46 16 -68 16q-35 0 -85 -34l-6 3l1 105l4 8q16 12 23.5 17t25.5 11t39 6t53 -10l39 -14q47 -15 65 -15q35 0 87 45z" />
    <glyph glyph-name="odieresis" unicode="&#xf6;" 
d="M569 266q0 -278 -269 -278q-156 0 -218 93q-47 69 -47 183q0 137 70 207t202 70q73 0 122 -19q140 -55 140 -256zM396 267q0 105 -29 140q-25 31 -64 31q-48 0 -73 -45q-20 -35 -20 -128q0 -112 36 -148q25 -23 56 -23q30 0 49.5 14.5t28.5 42t12.5 54t3.5 62.5zM483 744
l5 -5v-138l-5 -6l-136 -8l-6 6l-2 137l5 6zM261 743l5 -6v-135l-6 -6l-137 -8l-5 6l-3 136l5 6z" />
    <glyph glyph-name="divide" unicode="&#xf7;" horiz-adv-x="667" 
d="M402 128q-1 -26 -19 -46.5t-49 -20.5q-29 0 -49 19t-20 48q0 26 18.5 47.5t49.5 21.5q30 0 49.5 -20.5t19.5 -48.5zM402 451q0 -26 -18.5 -46.5t-50.5 -20.5q-28 0 -48 19.5t-20 48.5q0 26 18 47t51 21q30 0 49 -20.5t19 -48.5zM666 342v-103h-666v103h666z" />
    <glyph glyph-name="oslash" unicode="&#xf8;" 
d="M-3 42l71 61q-13 28 -18.5 44t-10 44t-4.5 67q0 149 78 220q72 63 194 63q50 0 89.5 -10t56 -19.5t38.5 -26.5q25 25 61 60h7l39 -43v-7l-68 -61q39 -70 39 -171q0 -146 -77 -217q-64 -58 -190 -58q-56 0 -97.5 10.5t-58 21t-40.5 30.5l-63 -58h-8l-38 42v8zM393 314
l-170 -156q22 -64 80 -64q92 0 92 165q0 19 -2 55zM211 229l168 154q-22 54 -73 54q-36 0 -58 -20.5t-28.5 -51t-9 -67t0.5 -69.5z" />
    <glyph glyph-name="ugrave" unicode="&#xf9;" 
d="M540 535l7 -8q-3 -141 -3 -282q0 -140 7 -239l-6 -6q-87 0 -160 -3l-7 6l1 45q-25 -19 -40 -29t-45 -20.5t-63 -10.5q-84 0 -131 53q-26 30 -33.5 70.5t-6.5 126.5v70q0 115 -7 213l7 6l165 8l7 -8l-2 -202q-1 -25 -1 -76q0 -24 0.5 -37.5t4 -35t11 -33t21.5 -20.5t35 -9
q25 0 75 33q1 40 1 85q0 176 -7 289l7 6zM309 771l6 -4q24 -85 59 -166l-5 -7h-108l-7 4q-60 101 -103 165l4 8h154z" />
    <glyph glyph-name="uacute" unicode="&#xfa;" 
d="M540 535l7 -8q-3 -141 -3 -282q0 -140 7 -239l-6 -6q-87 0 -160 -3l-7 6l1 45q-25 -19 -40 -29t-45 -20.5t-63 -10.5q-84 0 -131 53q-26 30 -33.5 70.5t-6.5 126.5v70q0 115 -7 213l7 6l165 8l7 -8l-2 -202q-1 -25 -1 -76q0 -24 0.5 -37.5t4 -35t11 -33t21.5 -20.5t35 -9
q25 0 75 33q1 40 1 85q0 176 -7 289l7 6zM455 772l3 -7q-76 -117 -108 -169l-7 -4h-108l-4 6q37 84 61 167l5 5z" />
    <glyph glyph-name="ucircumflex" unicode="&#xfb;" 
d="M540 535l7 -8q-3 -141 -3 -282q0 -140 7 -239l-6 -6q-87 0 -160 -3l-7 6l1 45q-25 -19 -40 -29t-45 -20.5t-63 -10.5q-84 0 -131 53q-26 30 -33.5 70.5t-6.5 126.5v70q0 115 -7 213l7 6l165 8l7 -8l-2 -202q-1 -25 -1 -76q0 -24 0.5 -37.5t4 -35t11 -33t21.5 -20.5t35 -9
q25 0 75 33q1 40 1 85q0 176 -7 289l7 6zM402 772l6 -5q47 -106 77 -165l-3 -6l-135 -4l-6 5l-42 105l-44 -103l-6 -5h-114l-3 6q44 83 82 167l6 5h182z" />
    <glyph glyph-name="udieresis" unicode="&#xfc;" 
d="M540 535l7 -8q-3 -141 -3 -282q0 -140 7 -239l-6 -6q-87 0 -160 -3l-7 6l1 45q-25 -19 -40 -29t-45 -20.5t-63 -10.5q-84 0 -131 53q-26 30 -33.5 70.5t-6.5 126.5v70q0 115 -7 213l7 6l165 8l7 -8l-2 -202q-1 -25 -1 -76q0 -24 0.5 -37.5t4 -35t11 -33t21.5 -20.5t35 -9
q25 0 75 33q1 40 1 85q0 176 -7 289l7 6zM484 744l5 -5v-138l-5 -6l-136 -8l-6 6l-2 137l5 6zM262 743l5 -6v-135l-6 -6l-137 -8l-5 6l-3 136l5 6z" />
    <glyph glyph-name="yacute" unicode="&#xfd;" horiz-adv-x="500" 
d="M507 533l4 -8q-6 -16 -44 -118q-98 -258 -135 -371t-79 -277l-7 -6q-12 0 -38 0.5t-38 0.5q-29 0 -79 -2l-5 8q52 114 94 221q-74 230 -191 538l5 7q88 2 177 9l8 -6l40 -152l29 -106l19 -71l22 75l26 86q26 83 45 162l8 7zM403 772l3 -7q-76 -117 -108 -169l-7 -4h-108
l-4 6q37 84 61 167l5 5z" />
    <glyph glyph-name="thorn" unicode="&#xfe;" 
d="M222 797l8 -6q-4 -186 -6 -296q66 46 135 46q93 0 151.5 -72t58.5 -181q0 -42 -10.5 -83t-34 -81.5t-68.5 -72t-106 -45.5q-45 -10 -121 -10q2 -104 7 -238l-5 -5q-74 1 -169 -3l-5 5q3 114 4 389q0 19 0.5 138t0.5 142q0 229 -12 340l6 7q36 5 59 9t50.5 8t56.5 9z
M229 107q87 2 124 41q41 42 41 124q0 63 -24 102q-29 45 -81 45q-30 0 -61 -20q0 -162 1 -292z" />
    <glyph glyph-name="ydieresis" unicode="&#xff;" horiz-adv-x="500" 
d="M507 533l4 -8q-6 -16 -44 -118q-98 -258 -135 -371t-79 -277l-7 -6q-12 0 -38 0.5t-38 0.5q-29 0 -79 -2l-5 8q52 114 94 221q-74 230 -191 538l5 7q88 2 177 9l8 -6l40 -152l29 -106l19 -71l22 75l26 86q26 83 45 162l8 7zM429 744l5 -5v-138l-5 -6l-136 -8l-6 6l-2 137
l5 6zM207 743l5 -6v-135l-6 -6l-137 -8l-5 6l-3 136l5 6z" />
    <glyph glyph-name="dotlessi" unicode="&#x131;" horiz-adv-x="292" 
d="M241 7l-7 -7q-78 1 -173 -3l-6 7q6 164 6 252q0 148 -11 253l6 6l172 30l7 -8q-3 -255 -3 -256q0 -135 9 -274z" />
    <glyph glyph-name="Lslash" unicode="&#x141;" horiz-adv-x="521" 
d="M491 138l5 -6q-6 -92 -8 -125l-5 -7q-225 1 -412 -3l-6 6q2 68 3 236q-9 -7 -19 -14.5t-18.5 -14t-20.5 -15.5l-9 5q0 51 -1 94l5 6q30 16 63 38q0 229 -7 363l6 5q97 0 179 4l6 -6q-2 -28 -6 -259q24 16 44 28q78 50 115 77l9 -6q-3 -42 -3 -95l-5 -7q-10 -7 -43.5 -28
t-71.5 -45t-45 -29q-3 -134 -2 -210h19q81 0 228 8z" />
    <glyph glyph-name="lslash" unicode="&#x142;" horiz-adv-x="292" 
d="M236 7l-6 -7q-88 0 -167 -3l-6 7q4 104 5 317q-8 -5 -54 -34l-8 6q3 45 3 92l5 8q29 16 53 33q1 206 -13 339l5 6q62 9 171 27l6 -7q-4 -116 -4 -264q35 22 58 38l7 -6q-4 -40 -5 -97l-5 -8q-31 -18 -54 -34q0 -121 2 -179q1 -128 7 -234z" />
    <glyph glyph-name="OE" unicode="&#x152;" horiz-adv-x="958" 
d="M886 424l-7 -117l-7 -5h-228l2 -172q145 1 270 8l5 -6l-8 -126l-5 -6h-235l-221 -4q-91 0 -150.5 8t-108.5 35q-75 41 -115 123q-36 75 -36 181q0 175 89 269q55 58 116.5 77t142.5 19q24 0 74 -2h171l272 3l6 -6l-8 -122l-6 -5l-255 2v-154l237 5zM247 238
q40 -107 176 -107q7 0 21.5 0.5t21.5 0.5q7 231 5 446q-28 2 -44 2q-136 0 -178 -111q-19 -47 -19 -124q0 -63 17 -107z" />
    <glyph glyph-name="oe" unicode="&#x153;" horiz-adv-x="917" 
d="M852 145l6 -5l-10 -110l-7 -7q-76 -35 -165 -35q-57 0 -99 11.5t-59 23.5t-43 35q-20 -20 -35.5 -31.5t-56.5 -25t-92 -13.5q-127 0 -191.5 72t-64.5 195q0 106 37 170q68 116 232 116q38 0 68 -6.5t51 -19t30.5 -20t22.5 -20.5q23 21 37.5 32t50.5 23t79 12
q105 0 164 -56q32 -30 49 -75.5t21 -80.5t6 -95l-6 -5l-328 -3q4 -20 7 -30.5t13.5 -30t25.5 -30.5t43 -20t66 -9q31 0 59.5 6t43.5 12t45 20zM551 332h173q-4 72 -45 94q-18 9 -39 9q-26 0 -46 -13q-17 -11 -26.5 -28.5t-12 -29.5t-4.5 -32zM392 267q0 86 -21 124
q-24 45 -71 45q-10 0 -21 -3q-72 -22 -72 -155q0 -182 94 -182q37 0 62 31q28 36 29 140z" />
    <glyph glyph-name="Scaron" unicode="&#x160;" horiz-adv-x="562" 
d="M349 430l26 -10q50 -23 77 -43q75 -58 75 -159q0 -143 -120 -202q-66 -31 -166 -31q-85 0 -157 25q-5 1 -10.5 3t-12 5t-10.5 4l-6 8l7 141l10 3q79 -63 171 -63q60 0 90 25t30 58q0 36 -29.5 58.5t-92.5 48.5l-33 15q-31 15 -48.5 25.5t-45.5 34t-42 56.5t-14 76
q0 90 61 151.5t192 61.5q97 0 185 -37l5 -7l-8 -131l-9 -4q-26 18 -42 27t-48.5 19t-67.5 10q-46 0 -70.5 -21.5t-24.5 -48.5q0 -31 27 -49t101 -49zM202 748l-6 4q-45 90 -82 145l4 8l135 3l7 -6l41 -81l48 80l6 6h118l4 -7q-56 -89 -83 -147l-7 -5h-185z" />
    <glyph glyph-name="scaron" unicode="&#x161;" horiz-adv-x="479" 
d="M270 345l49 -18q19 -7 29.5 -11.5t29 -14.5t29 -21t22 -27t17 -38t5.5 -48q0 -14 -1 -22q-20 -157 -244 -157q-71 0 -164 34l-5 9q5 64 7 113l9 4q25 -20 40 -28q55 -28 106 -28q39 0 59 15.5t20 36.5q0 17 -13.5 30t-25.5 18t-32 12l-38 14q-26 10 -41.5 18t-39.5 26
t-36.5 46.5t-12.5 66.5q0 51 27 88q55 79 199 79q63 0 153 -25l5 -6l-10 -109l-9 -3q-66 42 -125 42q-28 0 -45 -9.5t-21 -18t-4 -17.5q0 -19 15 -29.5t46 -21.5zM154 593l-5 5q-37 85 -77 165l3 6l135 4l5 -5l43 -105l44 103l6 5h114l3 -5q-49 -94 -82 -168l-7 -5h-182z
" />
    <glyph glyph-name="Ydieresis" unicode="&#x178;" 
d="M401 6l-6 -6q-93 0 -177 -3l-5 6q7 138 7 261v32q-15 26 -43 78q-11 20 -91.5 158t-96.5 166l3 8q89 1 190 7l7 -5q45 -96 62 -130q60 -114 72 -138q68 132 127 260l6 6q81 0 156 3l4 -7l-221 -402q0 -138 6 -294zM497 896l6 -6l-2 -129l-5 -6l-138 -3l-6 6v128l5 7z
M255 896l5 -6l-2 -127l-6 -7l-140 -2l-5 6v127l6 7z" />
    <glyph glyph-name="Zcaron" unicode="&#x17d;" horiz-adv-x="562" 
d="M524 6l-7 -6h-495l-6 6q9 18 30 62t65 135t81 168l56 120l42 87l-247 -4l-6 6l9 120l6 6h478l5 -5l-275 -572q149 1 267 6l6 -7zM197 748l-6 4q-45 90 -82 145l4 8l135 3l7 -6l41 -81l48 80l6 6h118l4 -7q-56 -89 -83 -147l-7 -5h-185z" />
    <glyph glyph-name="zcaron" unicode="&#x17e;" horiz-adv-x="479" 
d="M444 4l-8 -4h-413l-4 7q145 284 204 409l-178 -2l-5 6l10 104l5 7h396l5 -9q-49 -100 -103 -203q-55 -111 -98 -207l193 7l6 -5zM154 593l-5 5q-37 85 -77 165l3 6l135 4l5 -5l43 -105l44 103l6 5h114l3 -5q-49 -94 -82 -168l-7 -5h-182z" />
    <glyph glyph-name="florin" unicode="&#x192;" horiz-adv-x="458" 
d="M99 73l23 235q-12 0 -76 -2l-6 6q10 67 15 102l7 7q7 0 16.5 -0.5t25 -1t28.5 -0.5l6 55q11 95 21 121q37 94 163 94q54 0 106 -13l5 -9q-13 -64 -19 -104l-8 -5q-32 7 -44 7q-16 0 -26 -5t-16 -10.5t-10.5 -23.5t-6.5 -29.5t-6 -42.5l-3 -36q19 1 44.5 1.5t44.5 0.5
l5 -8q-8 -46 -16 -100l-7 -7q-41 1 -81 1l-29 -288q-11 -96 -21 -121q-37 -94 -163 -94q-49 0 -106 13l-5 9q5 23 19 104l8 5q32 -7 44 -7q15 0 25.5 4.5t16.5 11t10.5 23t6.5 29.5t5 42z" />
    <glyph glyph-name="circumflex" unicode="&#x2c6;" horiz-adv-x="292" 
d="M240 772l6 -5q47 -106 77 -165l-3 -6l-135 -4l-6 5l-42 105l-44 -103l-6 -5h-114l-3 6q44 83 82 167l6 5h182z" />
    <glyph glyph-name="caron" unicode="&#x2c7;" horiz-adv-x="292" 
d="M52 593l-5 5q-37 85 -77 165l3 6l135 4l5 -5l43 -105l44 103l6 5h114l3 -5q-49 -94 -82 -168l-7 -5h-182z" />
    <glyph glyph-name="breve" unicode="&#x2d8;" horiz-adv-x="292" 
d="M306 762l5 -4q-5 -59 -28 -95q-43 -66 -146 -66q-43 0 -74 13t-46.5 30t-24 41t-10 38t-1.5 30l5 7q39 1 105 7l6 -4q0 -59 49 -59q47 0 52 52l6 5q49 1 102 5z" />
    <glyph glyph-name="dotaccent" unicode="&#x2d9;" horiz-adv-x="292" 
d="M215 744l5 -4q0 -75 1 -139l-5 -6q-58 -2 -137 -7l-6 6q0 72 -2 136l5 6q27 1 139 8z" />
    <glyph glyph-name="ring" unicode="&#x2da;" horiz-adv-x="292" 
d="M273 698q2 -57 -34.5 -90t-97.5 -33q-58 0 -90.5 32.5t-32.5 81.5t33 86t97 37q65 0 94 -34t31 -80zM183 698q-2 55 -38 55q-15 0 -27.5 -13.5t-12.5 -46.5q0 -30 12 -45.5t28 -15.5q17 0 28 17t10 49z" />
    <glyph glyph-name="ogonek" unicode="&#x2db;" horiz-adv-x="292" 
d="M181 22l43 -23q-34 -8 -53 -20q-33 -20 -33 -49q0 -16 12.5 -27t32.5 -11q26 0 66 23l7 -4q-4 -56 -5 -71l-5 -7q-48 -24 -99 -24q-52 0 -82 25.5t-30 64.5q0 24 12 46.5t32 36.5q19 15 102 40z" />
    <glyph glyph-name="tilde" unicode="&#x2dc;" horiz-adv-x="292" 
d="M311 758l7 -3v-112l-4 -8q-50 -39 -94 -39q-20 0 -57 13l-30 11q-46 16 -68 16q-35 0 -85 -34l-6 3l1 105l4 8q16 12 23.5 17t25.5 11t39 6t53 -10l39 -14q47 -15 65 -15q35 0 87 45z" />
    <glyph glyph-name="hungarumlaut" unicode="&#x2dd;" horiz-adv-x="292" 
d="M153 772l4 -7q-71 -109 -108 -169l-7 -4h-108l-4 6q33 72 60 167l6 5q89 0 157 2zM359 772l4 -7q-71 -109 -108 -169l-7 -4h-108l-4 6q33 72 60 167l6 5q89 0 157 2z" />
    <glyph glyph-name="endash" unicode="&#x2013;" horiz-adv-x="583" 
d="M543 347l6 -7l-10 -116l-6 -7q-221 4 -494 3l-5 7l10 113l7 7q156 -2 236 -2q86 0 256 2z" />
    <glyph glyph-name="emdash" unicode="&#x2014;" horiz-adv-x="771" 
d="M729 349l8 -7q-6 -66 -10 -115l-6 -7q-106 1 -339 1h-341l-6 7q4 38 10 113l8 7q99 -3 389 -3q145 0 287 4z" />
    <glyph glyph-name="quoteleft" unicode="&#x2018;" horiz-adv-x="250" 
d="M10 504l-4 6q29 59 53 110q27 69 60 137l7 6l113 2l4 -7q-40 -123 -65 -243l-6 -6z" />
    <glyph glyph-name="quoteright" unicode="&#x2019;" horiz-adv-x="250" 
d="M240 765l4 -7q-29 -58 -57 -120q-8 -18 -17.5 -39t-21.5 -47t-18 -40l-6 -6l-113 -2l-4 6q42 134 65 243l6 7z" />
    <glyph glyph-name="quotesinglbase" unicode="&#x201a;" horiz-adv-x="250" 
d="M227 155l4 -7q-29 -58 -57 -120q-8 -18 -17.5 -39t-21.5 -47t-18 -40l-6 -6l-113 -2l-4 6q42 134 65 243l6 7z" />
    <glyph glyph-name="quotedblleft" unicode="&#x201c;" horiz-adv-x="479" 
d="M16 503l-4 6q38 78 113 248l7 6l116 1l3 -7q-40 -122 -66 -243l-5 -6zM228 504l-4 6q20 40 52 111q4 9 30 67t31 69l7 6l113 2l4 -7q-42 -133 -65 -243l-6 -6z" />
    <glyph glyph-name="quotedblright" unicode="&#x201d;" horiz-adv-x="479" 
d="M463 765l4 -6q-21 -44 -113 -248l-6 -5l-116 -2l-4 7q42 130 66 243l5 6zM251 765l4 -7q-34 -70 -61 -129q-43 -98 -52 -118l-7 -5l-113 -3l-4 7q41 127 66 243l5 6z" />
    <glyph glyph-name="quotedblbase" unicode="&#x201e;" horiz-adv-x="479" 
d="M463 155l4 -6q-50 -107 -113 -248l-6 -5l-116 -2l-4 7q42 130 66 243l5 6zM251 155l4 -6q-29 -59 -61 -130q-8 -19 -19 -43t-21 -47t-12 -27l-7 -6l-113 -2l-4 7q41 127 66 243l5 6z" />
    <glyph glyph-name="dagger" unicode="&#x2020;" horiz-adv-x="542" 
d="M513 407l-7 -7l-157 2q0 -34 -0.5 -103t-0.5 -104q0 -156 7 -367l-6 -8l-153 -3l-6 7q3 52 4 157q1 70 1.5 211t0.5 211l-166 -1l-6 7l4 104l7 8l162 -2q1 114 -5 237l7 8l148 1l5 -8q-4 -105 -3 -239l163 2l6 -8z" />
    <glyph glyph-name="daggerdbl" unicode="&#x2021;" horiz-adv-x="542" 
d="M512 436l-7 -6q-89 1 -156 1q0 -5 -0.5 -15.5t-0.5 -16.5q0 -15 -0.5 -46t-0.5 -47q0 -9 0.5 -64t0.5 -65q88 0 164 1l5 -7q-1 -25 -5 -106l-7 -6q-89 1 -157 1q0 -131 6 -231l-6 -8q-92 -1 -153 -3l-6 7q7 111 7 236q-93 0 -167 -1l-6 7q1 8 3 52t2 52l6 8
q148 -2 163 -2v98q0 11 -0.5 77.5t-0.5 79.5q-93 0 -166 -1l-6 7q0 37 4 105l7 7q32 0 54 -0.5t49.5 -1t58.5 -0.5q1 6 0 77.5t-5 129.5l7 9q74 -1 148 1l6 -8q-3 -48 -4 -125t0 -84q88 0 163 1l5 -7q-1 -19 -2.5 -53.5t-2.5 -52.5z" />
    <glyph glyph-name="bullet" unicode="&#x2022;" horiz-adv-x="333" 
d="M309 353q0 -60 -38 -101.5t-101 -41.5q-64 0 -105 42.5t-41 100.5t42 100t102 42q62 0 102 -41t39 -101z" />
    <glyph glyph-name="ellipsis" unicode="&#x2026;" horiz-adv-x="1000" 
d="M901 63q0 -27 -18.5 -48t-49.5 -21q-26 0 -47 18.5t-21 48.5t20 49.5t49 19.5q27 0 46.5 -18.5t20.5 -48.5zM568 63q0 -27 -18.5 -48t-49.5 -21q-26 0 -47 18.5t-21 48.5t20 49.5t49 19.5q27 0 46.5 -18.5t20.5 -48.5zM235 63q0 -29 -19.5 -49t-47.5 -20q-26 0 -47.5 18
t-21.5 50q0 30 20 49t47 19q29 0 48.5 -18.5t20.5 -48.5z" />
    <glyph glyph-name="perthousand" unicode="&#x2030;" horiz-adv-x="1312" 
d="M374 464q3 -237 -179 -237q-173 0 -173 223q0 93 25 144q44 92 155 92q35 0 63 -10t45.5 -23.5t30 -36t19 -40t10 -43.5t4 -37.5t0.5 -31.5zM257 470q0 29 -2 48.5t-7 42.5t-17.5 35t-30.5 12q-27 0 -42 -27q-19 -35 -19 -124q0 -152 61 -152q18 0 30 10.5t20 49t7 105.5
zM895 229q3 -237 -179 -237q-173 0 -173 223q0 92 25 143q44 92 155 92q35 0 63 -10t45.5 -23.5t30 -36t19 -39.5t10 -43.5t4 -37.5t0.5 -31zM778 234q0 29 -2 48.5t-7 42.5t-17.5 35t-30.5 12q-27 0 -42 -27q-19 -35 -19 -124q0 -151 61 -151q18 0 30 10.5t20 48.5t7 105z
M1291 229q3 -237 -179 -237q-173 0 -173 223q0 92 25 143q44 92 155 92q35 0 63 -10t45.5 -23.5t30 -36t19 -39.5t10 -43.5t4 -37.5t0.5 -31zM1174 234q0 29 -2 48.5t-7 42.5t-17.5 35t-30.5 12q-27 0 -42 -27q-19 -35 -19 -124q0 -81 15 -116t46 -35q18 0 30 10.5t20 48.5
t7 105zM375 7l-7 -7q-48 0 -100 -1l-6 8q57 124 142 321q100 238 140 342l8 7q77 1 99 2l4 -9q-135 -297 -280 -663z" />
    <glyph glyph-name="guilsinglleft" unicode="&#x2039;" horiz-adv-x="333" 
d="M138 471l7 6q33 0 118 3l6 -9q-4 -6 -46 -84t-54 -103q16 -33 99 -181l-4 -11q-96 -4 -116 -5l-8 5q-18 38 -44 83l-59 101v10q68 119 101 185z" />
    <glyph glyph-name="guilsinglright" unicode="&#x203a;" horiz-adv-x="333" 
d="M195 96l-6 -6q-33 0 -119 -3l-5 9q0 1 21.5 40.5t45.5 84.5t32 62q-18 37 -99 181l4 11q97 4 116 5l8 -5q23 -46 45 -82l59 -102v-10q-46 -76 -102 -185z" />
    <glyph glyph-name="fraction" unicode="&#x2044;" horiz-adv-x="125" 
d="M-40 7l-7 -7l-74 -2l-6 9q71 154 208 478q66 159 86 214l8 7l73 2l4 -9q-78 -172 -174 -400.5t-118 -291.5z" />
    <glyph glyph-name="fraction" unicode="&#x2215;" horiz-adv-x="125" 
d="M-40 7l-7 -7l-74 -2l-6 9q71 154 208 478q66 159 86 214l8 7l73 2l4 -9q-78 -172 -174 -400.5t-118 -291.5z" />
    <glyph glyph-name="Euro" unicode="&#x20ac;" horiz-adv-x="583" 
d="M394 213h-109q27 -113 138 -113q20 0 38.5 3t30.5 7t25.5 11.5t19 11.5t16.5 13t12 10l10 -4l-7 -124l-5 -6q-63 -35 -147 -35q-242 0 -301 226h-33q-38 0 -63 -1l-6 8q7 22 20 84l6 6q12 0 33.5 -0.5t33.5 -0.5q-2 24 -2 30q0 5 2 33h-21q-40 0 -65 -1l-6 8q10 27 20 84
l6 6q20 0 80 -2q29 100 104.5 162t197.5 62q46 0 87.5 -12.5t61.5 -24.5l4 -5l-32 -118l-12 -2q-33 48 -106 48q-104 0 -134 -111q122 0 163 2q44 1 60 2l6 -6q-3 -12 -10.5 -39t-12.5 -48l-6 -6q-26 1 -53 1h-161q-2 -30 -2 -33q0 -19 1 -32q93 0 134 2q45 1 61 2l6 -6
q-11 -32 -24 -87l-6 -6q-26 1 -53 1z" />
    <glyph glyph-name="trademark" unicode="&#x2122;" horiz-adv-x="687" 
d="M655 706v-332h-69l3 191l4 68l-15 -55l-62 -204h-63l-64 205l-15 53l5 -67l4 -191h-69v332h92l80 -251l76 251h93zM184 648v-274h-71v274h-105v58h278v-58h-102z" />
    <glyph glyph-name="minus" unicode="&#x2212;" horiz-adv-x="667" 
d="M667 345v-103h-667v103h667z" />
    <glyph glyph-name="fi" unicode="&#xfb01;" horiz-adv-x="646" 
d="M260 7l-6 -7q-76 1 -169 -3l-6 7q4 65 5 224q1 120 1 188l-76 -2l-6 6q7 67 10 106l6 6l66 -2l-1 60v35q3 117 101 154q37 15 101 15q32 0 71 -3l5 -7q-6 -61 -9 -113l-7 -4q-23 2 -31 2q-46 0 -60 -44q-4 -13 -5 -72v-23q35 -1 90 0l5 -6q-7 -67 -9 -106l-7 -7
q-30 3 -79 4q-3 -208 10 -408zM595 7l-7 -6q-80 0 -173 -4l-6 7q6 132 6 248q0 156 -11 257l6 6q117 19 173 30l6 -8q-3 -201 -3 -224q0 -196 9 -306zM579 641l-5 -7q-94 -12 -159 -23l-6 6l1 57q0 31 -3 82l6 6q113 14 163 21l6 -6q-3 -63 -3 -136z" />
    <glyph glyph-name="fl" unicode="&#xfb02;" horiz-adv-x="646" 
d="M260 7l-6 -7q-76 1 -169 -3l-6 7q4 65 5 224q1 120 1 188l-76 -2l-6 6q7 67 10 106l6 6l65 -2l-1 60q0 23 1 35q3 117 101 154q37 15 101 15q32 0 71 -3l5 -7q-6 -61 -9 -113l-7 -4q-23 2 -31 2q-46 0 -60 -44q-4 -13 -5 -72v-23q35 -1 90 0l5 -6q-7 -67 -9 -106l-7 -7
q-30 3 -79 4q-3 -208 10 -408zM590 7l-6 -6q-88 0 -167 -4l-6 7q6 100 6 260q0 229 -4 343q-2 67 -10 157l5 7q95 13 171 26l6 -6q-5 -135 -5 -254q0 -65 2 -195q2 -216 8 -335z" />
    </font>
</defs>
</svg>
